<mxfile host="Electron" modified="2024-03-14T12:04:34.174Z" agent="Mozilla/5.0 (Windows NT 10.0; Win64; x64) AppleWebKit/537.36 (KHTML, like Gecko) draw.io/21.6.1 Chrome/112.0.5615.204 Electron/24.6.1 Safari/537.36" etag="xqK02TAyLywBnpDZ-WWh" version="21.6.1" type="device">
  <diagram id="S8_EbyP6fOLFSmQk0vZv" name="Seite-1">
    <mxGraphModel dx="1356" dy="868" grid="1" gridSize="10" guides="0" tooltips="1" connect="1" arrows="1" fold="1" page="1" pageScale="1" pageWidth="1169" pageHeight="827" background="#FFFFFF" math="0" shadow="0">
      <root>
        <mxCell id="0" />
        <mxCell id="MhMX6n-4osd3CMCWlbSx-218" value="Background" style="" parent="0" />
        <mxCell id="MhMX6n-4osd3CMCWlbSx-231" value="&lt;div style=&quot;width: 43px; height: auto; word-break: break-word; font-size: 11px;&quot;&gt;&lt;div align=&quot;center&quot; style=&quot;font-size: 11px;&quot;&gt;&lt;span style=&quot;font-family: Helvetica; font-size: 11px; text-decoration: none; line-height: 36px; font-weight: bold;&quot;&gt;3101c&lt;/span&gt;&lt;/div&gt;&lt;/div&gt;" style="shape=rect;shadow=0;strokeWidth=0;strokeColor=none;fillColor=#cccccc;opacity=100.0;html=1;nl2Br=0;verticalAlign=top;align=center;spacingLeft=2.0;spacingRight=0;spacingTop=1.0;spacingBottom=8;whiteSpace=wrap;gliffyId=345;fontSize=11;" parent="MhMX6n-4osd3CMCWlbSx-218" vertex="1">
          <mxGeometry x="20" y="860" width="50" height="240" as="geometry" />
        </mxCell>
        <mxCell id="MhMX6n-4osd3CMCWlbSx-232" value="" style="shape=note;size=10;shadow=0;strokeWidth=0;fillColor=#cccccc;strokeColor=none;opacity=100.0;nl2Br=0;verticalAlign=top;align=center;spacingLeft=2.0;spacingRight=0;whiteSpace=wrap;gliffyId=41;spacingTop=1;spacingBottom=8;" parent="MhMX6n-4osd3CMCWlbSx-218" vertex="1">
          <mxGeometry x="19" y="840" width="1130" height="20" as="geometry" />
        </mxCell>
        <mxCell id="MhMX6n-4osd3CMCWlbSx-233" value="&lt;div style=&quot;width: 43px; height: auto; word-break: break-word; font-size: 11px;&quot;&gt;&lt;div align=&quot;center&quot; style=&quot;font-size: 11px;&quot;&gt;&lt;span style=&quot;font-family: Helvetica; font-size: 11px; text-decoration: none; line-height: 36px; font-weight: bold;&quot;&gt;3161c&lt;/span&gt;&lt;/div&gt;&lt;/div&gt;" style="shape=rect;shadow=0;strokeWidth=0;strokeColor=none;fillColor=#cccccc;opacity=100.0;html=1;nl2Br=0;verticalAlign=top;align=center;spacingLeft=2.0;spacingRight=0;spacingTop=1.0;spacingBottom=8;whiteSpace=wrap;gliffyId=345;fontSize=11;" parent="MhMX6n-4osd3CMCWlbSx-218" vertex="1">
          <mxGeometry x="379" y="860" width="50" height="240" as="geometry" />
        </mxCell>
        <mxCell id="MhMX6n-4osd3CMCWlbSx-234" value="&lt;div style=&quot;width: 43px; height: auto; word-break: break-word; font-size: 11px;&quot;&gt;&lt;div align=&quot;center&quot; style=&quot;font-size: 11px;&quot;&gt;&lt;span style=&quot;font-family: Helvetica; font-size: 11px; text-decoration: none; line-height: 36px; font-weight: bold;&quot;&gt;3511c&lt;/span&gt;&lt;/div&gt;&lt;/div&gt;" style="shape=rect;shadow=0;strokeWidth=0;strokeColor=none;fillColor=#cccccc;opacity=100.0;html=1;nl2Br=0;verticalAlign=top;align=center;spacingLeft=2.0;spacingRight=0;spacingTop=1.0;spacingBottom=8;whiteSpace=wrap;gliffyId=345;fontSize=11;" parent="MhMX6n-4osd3CMCWlbSx-218" vertex="1">
          <mxGeometry x="760" y="860" width="50" height="240" as="geometry" />
        </mxCell>
        <mxCell id="MhMX6n-4osd3CMCWlbSx-235" value="" style="shape=note;size=10;shadow=0;strokeWidth=0;fillColor=#cccccc;strokeColor=none;opacity=100.0;nl2Br=0;verticalAlign=top;align=center;spacingLeft=2.0;spacingRight=0;whiteSpace=wrap;gliffyId=41;spacingTop=1;spacingBottom=8;" parent="MhMX6n-4osd3CMCWlbSx-218" vertex="1">
          <mxGeometry x="20" y="1100" width="1129" height="20" as="geometry" />
        </mxCell>
        <mxCell id="MhMX6n-4osd3CMCWlbSx-236" value="&lt;div style=&quot;width: 43px; height: auto; word-break: break-word; font-size: 11px;&quot;&gt;&lt;div align=&quot;center&quot; style=&quot;font-size: 11px;&quot;&gt;&lt;span style=&quot;font-family: Helvetica; font-size: 11px; text-decoration: none; line-height: 36px; font-weight: bold;&quot;&gt;3512c&lt;/span&gt;&lt;/div&gt;&lt;/div&gt;" style="shape=rect;shadow=0;strokeWidth=0;strokeColor=none;fillColor=#cccccc;opacity=100.0;html=1;nl2Br=0;verticalAlign=top;align=center;spacingLeft=2.0;spacingRight=0;spacingTop=1.0;spacingBottom=8;whiteSpace=wrap;gliffyId=345;fontSize=11;" parent="MhMX6n-4osd3CMCWlbSx-218" vertex="1">
          <mxGeometry x="20" y="1120" width="49.93" height="260" as="geometry" />
        </mxCell>
        <mxCell id="MhMX6n-4osd3CMCWlbSx-237" value="&lt;div style=&quot;width: 43px; height: auto; word-break: break-word; font-size: 11px;&quot;&gt;&lt;div align=&quot;center&quot; style=&quot;font-size: 11px;&quot;&gt;&lt;span style=&quot;font-family: Helvetica; font-size: 11px; text-decoration: none; line-height: 36px; font-weight: bold;&quot;&gt;????&lt;/span&gt;&lt;/div&gt;&lt;/div&gt;" style="shape=rect;shadow=0;strokeWidth=0;strokeColor=none;fillColor=#cccccc;opacity=100.0;html=1;nl2Br=0;verticalAlign=top;align=center;spacingLeft=2.0;spacingRight=0;spacingTop=1.0;spacingBottom=8;whiteSpace=wrap;gliffyId=345;fontSize=11;" parent="MhMX6n-4osd3CMCWlbSx-218" vertex="1">
          <mxGeometry x="379.93" y="1120" width="50" height="260" as="geometry" />
        </mxCell>
        <mxCell id="MhMX6n-4osd3CMCWlbSx-238" value="&lt;div style=&quot;width: 43px; height: auto; word-break: break-word; font-size: 11px;&quot;&gt;&lt;div align=&quot;center&quot; style=&quot;font-size: 11px;&quot;&gt;&lt;span style=&quot;font-family: Helvetica; font-size: 11px; text-decoration: none; line-height: 36px; font-weight: bold;&quot;&gt;????&lt;/span&gt;&lt;/div&gt;&lt;/div&gt;" style="shape=rect;shadow=0;strokeWidth=0;strokeColor=none;fillColor=#cccccc;opacity=100.0;html=1;nl2Br=0;verticalAlign=top;align=center;spacingLeft=2.0;spacingRight=0;spacingTop=1.0;spacingBottom=8;whiteSpace=wrap;gliffyId=345;fontSize=11;" parent="MhMX6n-4osd3CMCWlbSx-218" vertex="1">
          <mxGeometry x="760" y="1120" width="50" height="260" as="geometry" />
        </mxCell>
        <mxCell id="MhMX6n-4osd3CMCWlbSx-239" value="&lt;div style=&quot;width: 43px; height: auto; word-break: break-word; font-size: 11px;&quot;&gt;&lt;div align=&quot;center&quot; style=&quot;font-size: 11px;&quot;&gt;&lt;span style=&quot;font-family: Helvetica; font-size: 11px; text-decoration: none; line-height: 36px; font-weight: bold;&quot;&gt;????&lt;/span&gt;&lt;/div&gt;&lt;/div&gt;" style="shape=rect;shadow=0;strokeWidth=0;strokeColor=none;fillColor=#cccccc;opacity=100.0;html=1;nl2Br=0;verticalAlign=top;align=center;spacingLeft=2.0;spacingRight=0;spacingTop=1.0;spacingBottom=8;whiteSpace=wrap;gliffyId=345;fontSize=11;" parent="MhMX6n-4osd3CMCWlbSx-218" vertex="1">
          <mxGeometry x="19.93" y="1400" width="50" height="250" as="geometry" />
        </mxCell>
        <mxCell id="MhMX6n-4osd3CMCWlbSx-240" value="" style="shape=note;size=10;shadow=0;strokeWidth=0;fillColor=#cccccc;strokeColor=none;opacity=100.0;nl2Br=0;verticalAlign=top;align=center;spacingLeft=2.0;spacingRight=0;whiteSpace=wrap;gliffyId=41;spacingTop=1;spacingBottom=8;" parent="MhMX6n-4osd3CMCWlbSx-218" vertex="1">
          <mxGeometry x="19.93" y="1380" width="1130" height="20" as="geometry" />
        </mxCell>
        <mxCell id="MhMX6n-4osd3CMCWlbSx-241" value="&lt;div style=&quot;width: 43px; height: auto; word-break: break-word; font-size: 11px;&quot;&gt;&lt;div align=&quot;center&quot; style=&quot;font-size: 11px;&quot;&gt;&lt;span style=&quot;font-family: Helvetica; font-size: 11px; text-decoration: none; line-height: 36px; font-weight: bold;&quot;&gt;????&lt;/span&gt;&lt;/div&gt;&lt;/div&gt;" style="shape=rect;shadow=0;strokeWidth=0;strokeColor=none;fillColor=#cccccc;opacity=100.0;html=1;nl2Br=0;verticalAlign=top;align=center;spacingLeft=2.0;spacingRight=0;spacingTop=1.0;spacingBottom=8;whiteSpace=wrap;gliffyId=345;fontSize=11;" parent="MhMX6n-4osd3CMCWlbSx-218" vertex="1">
          <mxGeometry x="379.93" y="1400" width="50" height="250" as="geometry" />
        </mxCell>
        <mxCell id="MhMX6n-4osd3CMCWlbSx-242" value="&lt;div style=&quot;width: 43px; height: auto; word-break: break-word; font-size: 11px;&quot;&gt;&lt;div align=&quot;center&quot; style=&quot;font-size: 11px;&quot;&gt;&lt;span style=&quot;font-family: Helvetica; font-size: 11px; text-decoration: none; line-height: 36px; font-weight: bold;&quot;&gt;????&lt;/span&gt;&lt;/div&gt;&lt;/div&gt;" style="shape=rect;shadow=0;strokeWidth=0;strokeColor=none;fillColor=#cccccc;opacity=100.0;html=1;nl2Br=0;verticalAlign=top;align=center;spacingLeft=2.0;spacingRight=0;spacingTop=1.0;spacingBottom=8;whiteSpace=wrap;gliffyId=345;fontSize=11;" parent="MhMX6n-4osd3CMCWlbSx-218" vertex="1">
          <mxGeometry x="760" y="1400" width="50" height="250" as="geometry" />
        </mxCell>
        <mxCell id="MhMX6n-4osd3CMCWlbSx-243" value="&lt;div style=&quot;width: 43px; height: auto; word-break: break-word; font-size: 11px;&quot;&gt;&lt;div align=&quot;center&quot; style=&quot;font-size: 11px;&quot;&gt;&lt;span style=&quot;font-family: Helvetica; font-size: 11px; text-decoration: none; line-height: 36px; font-weight: bold;&quot;&gt;3021c&lt;/span&gt;&lt;/div&gt;&lt;/div&gt;" style="shape=rect;shadow=0;strokeWidth=0;strokeColor=none;fillColor=#cccccc;opacity=100.0;html=1;nl2Br=0;verticalAlign=top;align=center;spacingLeft=2.0;spacingRight=0;spacingTop=1.0;spacingBottom=8;whiteSpace=wrap;gliffyId=345;fontSize=11;" parent="MhMX6n-4osd3CMCWlbSx-218" vertex="1">
          <mxGeometry x="620" y="290" width="50" height="270" as="geometry" />
        </mxCell>
        <mxCell id="MhMX6n-4osd3CMCWlbSx-244" value="" style="shape=note;size=10;shadow=0;strokeWidth=0;fillColor=#cccccc;strokeColor=none;opacity=100.0;nl2Br=0;verticalAlign=top;align=center;spacingLeft=2.0;spacingRight=0;whiteSpace=wrap;gliffyId=41;spacingTop=1;spacingBottom=8;" parent="MhMX6n-4osd3CMCWlbSx-218" vertex="1">
          <mxGeometry x="20" y="270" width="1130" height="20" as="geometry" />
        </mxCell>
        <mxCell id="MhMX6n-4osd3CMCWlbSx-245" value="&lt;div style=&quot;width: 43px; height: auto; word-break: break-word; font-size: 11px;&quot;&gt;&lt;div align=&quot;center&quot; style=&quot;font-size: 11px;&quot;&gt;&lt;span style=&quot;font-family: Helvetica; font-size: 11px; text-decoration: none; line-height: 36px; font-weight: bold;&quot;&gt;3031c&lt;/span&gt;&lt;/div&gt;&lt;/div&gt;" style="shape=rect;shadow=0;strokeWidth=0;strokeColor=none;fillColor=#cccccc;opacity=100.0;html=1;nl2Br=0;verticalAlign=top;align=center;spacingLeft=2.0;spacingRight=0;spacingTop=1.0;spacingBottom=8;whiteSpace=wrap;gliffyId=345;fontSize=11;" parent="MhMX6n-4osd3CMCWlbSx-218" vertex="1">
          <mxGeometry x="885" y="290" width="50" height="270" as="geometry" />
        </mxCell>
        <mxCell id="MhMX6n-4osd3CMCWlbSx-246" value="&lt;div style=&quot;width: 43px; height: auto; word-break: break-word; font-size: 11px;&quot;&gt;&lt;div align=&quot;center&quot; style=&quot;font-size: 11px;&quot;&gt;&lt;span style=&quot;font-family: Helvetica; font-size: 11px; text-decoration: none; line-height: 36px; font-weight: bold;&quot;&gt;3011c&lt;/span&gt;&lt;/div&gt;&lt;/div&gt;" style="shape=rect;shadow=0;strokeWidth=0;strokeColor=none;fillColor=#cccccc;opacity=100.0;html=1;nl2Br=0;verticalAlign=top;align=center;spacingLeft=2.0;spacingRight=0;spacingTop=1.0;spacingBottom=8;whiteSpace=wrap;gliffyId=345;fontSize=11;" parent="MhMX6n-4osd3CMCWlbSx-218" vertex="1">
          <mxGeometry x="20" y="290" width="50" height="270" as="geometry" />
        </mxCell>
        <mxCell id="MhMX6n-4osd3CMCWlbSx-247" value="&lt;div style=&quot;width: 43px; height: auto; word-break: break-word; font-size: 11px;&quot;&gt;&lt;div align=&quot;center&quot; style=&quot;font-size: 11px;&quot;&gt;&lt;span style=&quot;font-family: Helvetica; font-size: 11px; text-decoration: none; line-height: 36px; font-weight: bold;&quot;&gt;3012c&lt;/span&gt;&lt;/div&gt;&lt;/div&gt;" style="shape=rect;shadow=0;strokeWidth=0;strokeColor=none;fillColor=#cccccc;opacity=100.0;html=1;nl2Br=0;verticalAlign=top;align=center;spacingLeft=2.0;spacingRight=0;spacingTop=1.0;spacingBottom=8;whiteSpace=wrap;gliffyId=345;fontSize=11;" parent="MhMX6n-4osd3CMCWlbSx-218" vertex="1">
          <mxGeometry x="300" y="290" width="50" height="270" as="geometry" />
        </mxCell>
        <mxCell id="MhMX6n-4osd3CMCWlbSx-248" value="" style="shape=note;size=10;shadow=0;strokeWidth=0;fillColor=#cccccc;strokeColor=none;opacity=100.0;nl2Br=0;verticalAlign=top;align=center;spacingLeft=2.0;spacingRight=0;whiteSpace=wrap;gliffyId=41;spacingTop=1;spacingBottom=8;" parent="MhMX6n-4osd3CMCWlbSx-218" vertex="1">
          <mxGeometry x="20" y="560" width="1130" height="20" as="geometry" />
        </mxCell>
        <mxCell id="MhMX6n-4osd3CMCWlbSx-249" value="&lt;div style=&quot;width: 43px; height: auto; word-break: break-word; font-size: 11px;&quot;&gt;&lt;div align=&quot;center&quot; style=&quot;font-size: 11px;&quot;&gt;3032c&lt;br&gt;&lt;/div&gt;&lt;/div&gt;" style="shape=rect;shadow=0;strokeWidth=0;strokeColor=none;fillColor=#cccccc;opacity=100.0;html=1;nl2Br=0;verticalAlign=top;align=center;spacingLeft=2.0;spacingRight=0;spacingTop=1.0;spacingBottom=8;whiteSpace=wrap;gliffyId=345;fontSize=11;fontStyle=1" parent="MhMX6n-4osd3CMCWlbSx-218" vertex="1">
          <mxGeometry x="20" y="580" width="50" height="240" as="geometry" />
        </mxCell>
        <mxCell id="MhMX6n-4osd3CMCWlbSx-250" value="&lt;div style=&quot;width: 43px; height: auto; word-break: break-word; font-size: 11px;&quot;&gt;&lt;div align=&quot;center&quot; style=&quot;font-size: 11px;&quot;&gt;3033c&lt;br&gt;&lt;/div&gt;&lt;/div&gt;" style="shape=rect;shadow=0;strokeWidth=0;strokeColor=none;fillColor=#cccccc;opacity=100.0;html=1;nl2Br=0;verticalAlign=top;align=center;spacingLeft=2.0;spacingRight=0;spacingTop=1.0;spacingBottom=8;whiteSpace=wrap;gliffyId=345;fontSize=11;fontStyle=1" parent="MhMX6n-4osd3CMCWlbSx-218" vertex="1">
          <mxGeometry x="300" y="580" width="50" height="240" as="geometry" />
        </mxCell>
        <mxCell id="MhMX6n-4osd3CMCWlbSx-251" value="&lt;div style=&quot;width: 43px; height: auto; word-break: break-word; font-size: 11px;&quot;&gt;&lt;div align=&quot;center&quot; style=&quot;font-size: 11px;&quot;&gt;3051c&lt;br&gt;&lt;/div&gt;&lt;/div&gt;" style="shape=rect;shadow=0;strokeWidth=0;strokeColor=none;fillColor=#cccccc;opacity=100.0;html=1;nl2Br=0;verticalAlign=top;align=center;spacingLeft=2.0;spacingRight=0;spacingTop=1.0;spacingBottom=8;whiteSpace=wrap;gliffyId=345;fontSize=11;fontStyle=1" parent="MhMX6n-4osd3CMCWlbSx-218" vertex="1">
          <mxGeometry x="620" y="580" width="50" height="240" as="geometry" />
        </mxCell>
        <mxCell id="MhMX6n-4osd3CMCWlbSx-252" value="&lt;div style=&quot;width: 43px; height: auto; word-break: break-word; font-size: 11px;&quot;&gt;&lt;div align=&quot;center&quot; style=&quot;font-size: 11px;&quot;&gt;&lt;span style=&quot;font-family: Helvetica; font-size: 11px; text-decoration: none; line-height: 36px; font-weight: bold;&quot;&gt;3052c&lt;/span&gt;&lt;/div&gt;&lt;/div&gt;" style="shape=rect;shadow=0;strokeWidth=0;strokeColor=none;fillColor=#cccccc;opacity=100.0;html=1;nl2Br=0;verticalAlign=top;align=center;spacingLeft=2.0;spacingRight=0;spacingTop=1.0;spacingBottom=8;whiteSpace=wrap;gliffyId=345;fontSize=11;" parent="MhMX6n-4osd3CMCWlbSx-218" vertex="1">
          <mxGeometry x="883.75" y="580" width="50" height="240" as="geometry" />
        </mxCell>
        <mxCell id="2" value="Scenarios" parent="0" />
        <mxCell id="cFV7ejBLRMOV1y-EgFsQ-973" style="edgeStyle=orthogonalEdgeStyle;shape=filledEdge;rounded=1;orthogonalLoop=1;jettySize=auto;html=1;entryX=0.75;entryY=0;entryDx=0;entryDy=0;labelBackgroundColor=default;strokeColor=#000000;strokeWidth=2;fontFamily=Helvetica;fontSize=11;fontColor=default;startArrow=none;startFill=0;endArrow=none;endFill=0;startSize=6;endSize=6;fillColor=none;" parent="2" source="30" target="cFV7ejBLRMOV1y-EgFsQ-178" edge="1">
          <mxGeometry relative="1" as="geometry" />
        </mxCell>
        <mxCell id="30" value="&lt;div style=&quot;width: 93.0px;height:auto;word-break: break-word;&quot;&gt;&lt;div&gt;&lt;span style=&quot;font-family: Arial; font-size: 12px; text-decoration: none; line-height: 0;&quot;&gt;&lt;span style=&quot;text-decoration: none; line-height: 14px;&quot; class=&quot;&quot;&gt;A_SAT&lt;/span&gt;&lt;/span&gt;&lt;/div&gt;&lt;/div&gt;" style="shape=rect;rounded=1;arcSize=15;absoluteArcSize=1;shadow=0;strokeWidth=2;fillColor=#E6E6E6;strokeColor=#333333;opacity=100.0;html=1;nl2Br=0;verticalAlign=middle;align=right;spacingLeft=2.0;spacingRight=10;whiteSpace=wrap;gliffyId=15;" parent="2" vertex="1">
          <mxGeometry x="680" y="300" width="190" height="110" as="geometry" />
        </mxCell>
        <mxCell id="51" value="&lt;div style=&quot;width: 93.0px;height:auto;word-break: break-word;&quot;&gt;&lt;div&gt;&lt;span style=&quot;font-family: Arial; font-size: 12px; text-decoration: none; line-height: 0;&quot;&gt;&lt;span style=&quot;text-decoration: none; line-height: 14px;&quot;&gt;A_HUB&lt;/span&gt;&lt;/span&gt;&lt;/div&gt;&lt;/div&gt;" style="shape=ellipse;perimeter=ellipsePerimeter;shadow=0;strokeWidth=2;fillColor=#E6E6E6;strokeColor=#333333;opacity=100.0;html=1;nl2Br=0;verticalAlign=middle;align=right;spacingLeft=2.0;spacingRight=10;whiteSpace=wrap;gliffyId=12;" parent="2" vertex="1">
          <mxGeometry x="680" y="425" width="190" height="105" as="geometry" />
        </mxCell>
        <mxCell id="AQTmQn9YJskU7MhowZhO-138" value="" style="shape=step;perimeter=stepPerimeter;whiteSpace=wrap;html=1;fixedSize=1;size=2.9999999999999716;fillColor=#7f00ff;strokeColor=none;shadow=0;strokeWidth=2;opacity=100;spacingLeft=0.6;spacingRight=0;" parent="2" vertex="1">
          <mxGeometry x="49.379999999999995" y="14" width="10" height="10" as="geometry" />
        </mxCell>
        <mxCell id="cFV7ejBLRMOV1y-EgFsQ-128" value="" style="shape=step;perimeter=stepPerimeter;whiteSpace=wrap;html=1;fixedSize=1;size=2.9999999999999716;fillColor=#cc0000;strokeColor=none;shadow=0;strokeWidth=2;opacity=100;spacingLeft=0.6;spacingRight=0;" parent="2" vertex="1">
          <mxGeometry x="30" y="14" width="10" height="10" as="geometry" />
        </mxCell>
        <mxCell id="cFV7ejBLRMOV1y-EgFsQ-130" value="" style="triangle;whiteSpace=wrap;html=1;rotation=90;fillColor=#7f00ff;strokeColor=none;shadow=0;strokeWidth=2;opacity=100;spacingLeft=0.6;spacingRight=0;" parent="2" vertex="1">
          <mxGeometry x="48.129999999999995" y="101.25" width="10" height="10" as="geometry" />
        </mxCell>
        <mxCell id="cFV7ejBLRMOV1y-EgFsQ-131" value="" style="shape=step;perimeter=stepPerimeter;whiteSpace=wrap;html=1;fixedSize=1;size=2.9999999999999716;fillColor=#00c74c;strokeColor=none;shadow=0;strokeWidth=2;opacity=100;spacingLeft=0.6;spacingRight=0;" parent="2" vertex="1">
          <mxGeometry x="70" y="14" width="10" height="10" as="geometry" />
        </mxCell>
        <mxCell id="cFV7ejBLRMOV1y-EgFsQ-134" value="" style="ellipse;whiteSpace=wrap;html=1;strokeColor=none;fillColor=#CC0000;" parent="2" vertex="1">
          <mxGeometry x="28.75" y="141.5" width="10" height="11" as="geometry" />
        </mxCell>
        <mxCell id="cFV7ejBLRMOV1y-EgFsQ-135" value="" style="ellipse;whiteSpace=wrap;html=1;strokeColor=none;fillColor=#7F00FF;" parent="2" vertex="1">
          <mxGeometry x="48.129999999999995" y="141.5" width="10" height="11" as="geometry" />
        </mxCell>
        <mxCell id="cFV7ejBLRMOV1y-EgFsQ-136" value="" style="ellipse;whiteSpace=wrap;html=1;strokeColor=none;fillColor=#00C74C;" parent="2" vertex="1">
          <mxGeometry x="68.75" y="141.5" width="10" height="11" as="geometry" />
        </mxCell>
        <mxCell id="cFV7ejBLRMOV1y-EgFsQ-137" value="" style="ellipse;whiteSpace=wrap;html=1;strokeColor=none;fillColor=#000000;" parent="2" vertex="1">
          <mxGeometry x="88.75" y="141.5" width="10" height="11" as="geometry" />
        </mxCell>
        <mxCell id="cFV7ejBLRMOV1y-EgFsQ-138" value="" style="shape=step;perimeter=stepPerimeter;whiteSpace=wrap;html=1;fixedSize=1;size=2.9999999999999716;fillColor=#000000;strokeColor=none;shadow=0;strokeWidth=2;opacity=100;spacingLeft=0.6;spacingRight=0;" parent="2" vertex="1">
          <mxGeometry x="90" y="14" width="10" height="10" as="geometry" />
        </mxCell>
        <mxCell id="cFV7ejBLRMOV1y-EgFsQ-139" value="" style="ellipse;whiteSpace=wrap;html=1;strokeColor=#CC0000;fillColor=default;strokeWidth=2;" parent="2" vertex="1">
          <mxGeometry x="28.75" y="191.25" width="10" height="11" as="geometry" />
        </mxCell>
        <mxCell id="cFV7ejBLRMOV1y-EgFsQ-140" value="" style="ellipse;whiteSpace=wrap;html=1;strokeColor=#7F00FF;fillColor=default;strokeWidth=2;" parent="2" vertex="1">
          <mxGeometry x="48.129999999999995" y="191.25" width="10" height="11" as="geometry" />
        </mxCell>
        <mxCell id="cFV7ejBLRMOV1y-EgFsQ-141" value="" style="ellipse;whiteSpace=wrap;html=1;strokeColor=#00C74C;fillColor=none;strokeWidth=2;" parent="2" vertex="1">
          <mxGeometry x="68.75" y="191.25" width="10" height="11" as="geometry" />
        </mxCell>
        <mxCell id="cFV7ejBLRMOV1y-EgFsQ-142" value="" style="ellipse;whiteSpace=wrap;html=1;strokeColor=default;fillColor=none;strokeWidth=2;" parent="2" vertex="1">
          <mxGeometry x="88.75" y="191.25" width="10" height="11" as="geometry" />
        </mxCell>
        <mxCell id="cFV7ejBLRMOV1y-EgFsQ-143" value="Explicit relation declaration in the field to target mapping&amp;nbsp; and link to hub mapping&lt;br&gt;(Black = explicit unnamed mapping)" style="shape=rect;shadow=0;strokeWidth=0;strokeColor=none;fillColor=#cccccc;opacity=100.0;html=1;nl2Br=0;verticalAlign=top;align=left;spacingLeft=10;spacingRight=0;spacingTop=0;spacingBottom=0;whiteSpace=wrap;gliffyId=345;spacing=0;" parent="2" vertex="1">
          <mxGeometry x="131.25" y="10" width="480" height="41.25" as="geometry" />
        </mxCell>
        <mxCell id="cFV7ejBLRMOV1y-EgFsQ-146" value="Declared tracked relation of effectivity satellites on links" style="shape=rect;shadow=0;strokeWidth=0;strokeColor=none;fillColor=#cccccc;opacity=100.0;html=1;nl2Br=0;verticalAlign=top;align=left;spacingLeft=10;spacingRight=0;spacingTop=0;spacingBottom=0;whiteSpace=wrap;gliffyId=345;spacing=0;" parent="2" vertex="1">
          <mxGeometry x="130" y="97.25" width="480" height="31.25" as="geometry" />
        </mxCell>
        <mxCell id="cFV7ejBLRMOV1y-EgFsQ-147" value="" style="triangle;whiteSpace=wrap;html=1;rotation=90;fillColor=#CC0000;strokeColor=none;shadow=0;strokeWidth=2;opacity=100;spacingLeft=0.6;spacingRight=0;" parent="2" vertex="1">
          <mxGeometry x="28.75" y="101.25" width="10" height="10" as="geometry" />
        </mxCell>
        <mxCell id="cFV7ejBLRMOV1y-EgFsQ-148" value="" style="triangle;whiteSpace=wrap;html=1;rotation=90;fillColor=#00C74C;strokeColor=none;shadow=0;strokeWidth=2;opacity=100;spacingLeft=0.6;spacingRight=0;" parent="2" vertex="1">
          <mxGeometry x="68.75" y="101.25" width="10" height="10" as="geometry" />
        </mxCell>
        <mxCell id="cFV7ejBLRMOV1y-EgFsQ-149" value="" style="triangle;whiteSpace=wrap;html=1;rotation=90;fillColor=#000000;strokeColor=none;shadow=0;strokeWidth=2;opacity=100;spacingLeft=0.6;spacingRight=0;" parent="2" vertex="1">
          <mxGeometry x="88.75" y="101.25" width="10" height="10" as="geometry" />
        </mxCell>
        <mxCell id="cFV7ejBLRMOV1y-EgFsQ-150" value="Load operations, created from explicit declarations" style="shape=rect;shadow=0;strokeWidth=0;strokeColor=none;fillColor=#cccccc;opacity=100.0;html=1;nl2Br=0;verticalAlign=top;align=left;spacingLeft=10;spacingRight=0;spacingTop=0;spacingBottom=0;whiteSpace=wrap;gliffyId=345;spacing=0;" parent="2" vertex="1">
          <mxGeometry x="130" y="138.5" width="480" height="30.25" as="geometry" />
        </mxCell>
        <mxCell id="cFV7ejBLRMOV1y-EgFsQ-151" value="Load operations, induced by specific constellations(Star = main/universal, Diamond =&lt;br style=&quot;border-color: var(--border-color);&quot;&gt;Link with explicit relation mappings)" style="shape=rect;shadow=0;strokeWidth=0;strokeColor=none;fillColor=#cccccc;opacity=100.0;html=1;nl2Br=0;verticalAlign=top;align=left;spacingLeft=10;spacingRight=0;spacingTop=0;spacingBottom=0;whiteSpace=wrap;gliffyId=345;spacing=0;" parent="2" vertex="1">
          <mxGeometry x="131.25" y="188.5" width="480" height="41.5" as="geometry" />
        </mxCell>
        <mxCell id="cFV7ejBLRMOV1y-EgFsQ-156" value="" style="group" parent="2" vertex="1" connectable="0">
          <mxGeometry x="110" y="190" width="10" height="11.25" as="geometry" />
        </mxCell>
        <mxCell id="cFV7ejBLRMOV1y-EgFsQ-154" value="" style="ellipse;whiteSpace=wrap;html=1;strokeColor=none;fillColor=#000000;" parent="cFV7ejBLRMOV1y-EgFsQ-156" vertex="1">
          <mxGeometry y="0.25" width="10" height="11" as="geometry" />
        </mxCell>
        <mxCell id="cFV7ejBLRMOV1y-EgFsQ-155" value="" style="verticalLabelPosition=bottom;verticalAlign=top;html=1;shape=mxgraph.basic.star;fillColor=#FFFFFF;strokeColor=none;" parent="cFV7ejBLRMOV1y-EgFsQ-156" vertex="1">
          <mxGeometry width="10" height="10" as="geometry" />
        </mxCell>
        <mxCell id="cFV7ejBLRMOV1y-EgFsQ-158" value="" style="shape=step;perimeter=stepPerimeter;whiteSpace=wrap;html=1;fixedSize=1;size=2.9999999999999716;fillColor=none;strokeColor=#7F00FF;shadow=0;strokeWidth=2;opacity=100;spacingLeft=0.6;spacingRight=0;" parent="2" vertex="1">
          <mxGeometry x="49.379999999999995" y="59" width="10" height="10" as="geometry" />
        </mxCell>
        <mxCell id="cFV7ejBLRMOV1y-EgFsQ-159" value="" style="shape=step;perimeter=stepPerimeter;whiteSpace=wrap;html=1;fixedSize=1;size=2.9999999999999716;fillColor=none;strokeColor=#CC0000;shadow=0;strokeWidth=2;opacity=100;spacingLeft=0.6;spacingRight=0;" parent="2" vertex="1">
          <mxGeometry x="30" y="59" width="10" height="10" as="geometry" />
        </mxCell>
        <mxCell id="cFV7ejBLRMOV1y-EgFsQ-160" value="" style="shape=step;perimeter=stepPerimeter;whiteSpace=wrap;html=1;fixedSize=1;size=2.9999999999999716;fillColor=none;strokeColor=#00C74C;shadow=0;strokeWidth=2;opacity=100;spacingLeft=0.6;spacingRight=0;" parent="2" vertex="1">
          <mxGeometry x="70" y="59" width="10" height="10" as="geometry" />
        </mxCell>
        <mxCell id="cFV7ejBLRMOV1y-EgFsQ-161" value="" style="shape=step;perimeter=stepPerimeter;whiteSpace=wrap;html=1;fixedSize=1;size=2.9999999999999716;fillColor=none;strokeColor=default;shadow=0;strokeWidth=2;opacity=100;spacingLeft=0.6;spacingRight=0;" parent="2" vertex="1">
          <mxGeometry x="90" y="59" width="10" height="10" as="geometry" />
        </mxCell>
        <mxCell id="cFV7ejBLRMOV1y-EgFsQ-162" value="Induced relation participation of a field" style="shape=rect;shadow=0;strokeWidth=0;strokeColor=none;fillColor=#cccccc;opacity=100.0;html=1;nl2Br=0;verticalAlign=top;align=left;spacingLeft=10;spacingRight=0;spacingTop=0;spacingBottom=0;whiteSpace=wrap;gliffyId=345;spacing=0;" parent="2" vertex="1">
          <mxGeometry x="130" y="56" width="480" height="31.25" as="geometry" />
        </mxCell>
        <mxCell id="cFV7ejBLRMOV1y-EgFsQ-163" value="C1_T" style="rounded=0;whiteSpace=wrap;html=1;align=left;" parent="2" vertex="1">
          <mxGeometry x="688.13" y="310" width="121.87" height="20" as="geometry" />
        </mxCell>
        <mxCell id="cFV7ejBLRMOV1y-EgFsQ-165" value="T" style="rounded=0;whiteSpace=wrap;html=1;" parent="2" vertex="1">
          <mxGeometry x="28.75" y="220" width="11.25" height="20" as="geometry" />
        </mxCell>
        <mxCell id="cFV7ejBLRMOV1y-EgFsQ-166" value="U" style="rounded=0;whiteSpace=wrap;html=1;" parent="2" vertex="1">
          <mxGeometry x="48.13" y="220" width="11.25" height="20" as="geometry" />
        </mxCell>
        <mxCell id="cFV7ejBLRMOV1y-EgFsQ-167" value="V" style="rounded=0;whiteSpace=wrap;html=1;" parent="2" vertex="1">
          <mxGeometry x="68.13" y="220" width="11.25" height="20" as="geometry" />
        </mxCell>
        <mxCell id="cFV7ejBLRMOV1y-EgFsQ-168" value="/" style="rounded=0;whiteSpace=wrap;html=1;" parent="2" vertex="1">
          <mxGeometry x="88.13" y="220" width="11.25" height="20" as="geometry" />
        </mxCell>
        <mxCell id="cFV7ejBLRMOV1y-EgFsQ-170" value="C2_T" style="rounded=0;whiteSpace=wrap;html=1;align=left;" parent="2" vertex="1">
          <mxGeometry x="688.13" y="350" width="121.87" height="20" as="geometry" />
        </mxCell>
        <mxCell id="cFV7ejBLRMOV1y-EgFsQ-178" value="BK1_T" style="rounded=0;whiteSpace=wrap;html=1;align=left;" parent="2" vertex="1">
          <mxGeometry x="699.07" y="435" width="100" height="20" as="geometry" />
        </mxCell>
        <mxCell id="cFV7ejBLRMOV1y-EgFsQ-179" value="BK1_U" style="rounded=0;whiteSpace=wrap;html=1;align=left;" parent="2" vertex="1">
          <mxGeometry x="699.07" y="455" width="100" height="20" as="geometry" />
        </mxCell>
        <mxCell id="cFV7ejBLRMOV1y-EgFsQ-181" value="BK2_T" style="rounded=0;whiteSpace=wrap;html=1;align=left;" parent="2" vertex="1">
          <mxGeometry x="699.07" y="475" width="100" height="20" as="geometry" />
        </mxCell>
        <mxCell id="cFV7ejBLRMOV1y-EgFsQ-182" value="BK2_U" style="rounded=0;whiteSpace=wrap;html=1;align=left;" parent="2" vertex="1">
          <mxGeometry x="699.07" y="495" width="100" height="20" as="geometry" />
        </mxCell>
        <mxCell id="cFV7ejBLRMOV1y-EgFsQ-172" value="" style="shape=step;perimeter=stepPerimeter;whiteSpace=wrap;html=1;fixedSize=1;size=2.9999999999999716;fillColor=#cc0000;strokeColor=none;shadow=0;strokeWidth=2;opacity=100;spacingLeft=0.6;spacingRight=0;" parent="2" vertex="1">
          <mxGeometry x="745.56" y="314.5" width="10" height="10" as="geometry" />
        </mxCell>
        <mxCell id="cFV7ejBLRMOV1y-EgFsQ-188" value="" style="shape=step;perimeter=stepPerimeter;whiteSpace=wrap;html=1;fixedSize=1;size=2.9999999999999716;fillColor=#cc0000;strokeColor=none;shadow=0;strokeWidth=2;opacity=100;spacingLeft=0.6;spacingRight=0;" parent="2" vertex="1">
          <mxGeometry x="744.63" y="440.5" width="10" height="10" as="geometry" />
        </mxCell>
        <mxCell id="cFV7ejBLRMOV1y-EgFsQ-189" value="" style="shape=step;perimeter=stepPerimeter;whiteSpace=wrap;html=1;fixedSize=1;size=2.9999999999999716;fillColor=#7f00ff;strokeColor=none;shadow=0;strokeWidth=2;opacity=100;spacingLeft=0.6;spacingRight=0;" parent="2" vertex="1">
          <mxGeometry x="744.63" y="460.5" width="10" height="10" as="geometry" />
        </mxCell>
        <mxCell id="cFV7ejBLRMOV1y-EgFsQ-191" value="" style="shape=step;perimeter=stepPerimeter;whiteSpace=wrap;html=1;fixedSize=1;size=2.9999999999999716;fillColor=#cc0000;strokeColor=none;shadow=0;strokeWidth=2;opacity=100;spacingLeft=0.6;spacingRight=0;" parent="2" vertex="1">
          <mxGeometry x="744.63" y="479.5" width="10" height="10" as="geometry" />
        </mxCell>
        <mxCell id="cFV7ejBLRMOV1y-EgFsQ-192" value="" style="shape=step;perimeter=stepPerimeter;whiteSpace=wrap;html=1;fixedSize=1;size=2.9999999999999716;fillColor=#7f00ff;strokeColor=none;shadow=0;strokeWidth=2;opacity=100;spacingLeft=0.6;spacingRight=0;" parent="2" vertex="1">
          <mxGeometry x="744.63" y="499.5" width="10" height="10" as="geometry" />
        </mxCell>
        <mxCell id="cFV7ejBLRMOV1y-EgFsQ-195" value="" style="ellipse;whiteSpace=wrap;html=1;strokeColor=none;fillColor=#cc0000;" parent="2" vertex="1">
          <mxGeometry x="820" y="488.5" width="10" height="11" as="geometry" />
        </mxCell>
        <mxCell id="cFV7ejBLRMOV1y-EgFsQ-196" value="" style="ellipse;whiteSpace=wrap;html=1;strokeColor=none;fillColor=#7f00ff;" parent="2" vertex="1">
          <mxGeometry x="838.75" y="488.5" width="10" height="11" as="geometry" />
        </mxCell>
        <mxCell id="cFV7ejBLRMOV1y-EgFsQ-309" style="edgeStyle=orthogonalEdgeStyle;shape=filledEdge;rounded=1;orthogonalLoop=1;jettySize=auto;html=1;labelBackgroundColor=default;strokeColor=#000000;strokeWidth=2;fontFamily=Helvetica;fontSize=11;fontColor=default;startArrow=none;startFill=0;endArrow=blockThin;endFill=1;startSize=6;endSize=6;fillColor=none;" parent="2" edge="1">
          <mxGeometry relative="1" as="geometry">
            <mxPoint x="493.75" y="424" as="sourcePoint" />
            <mxPoint x="493.75" y="410" as="targetPoint" />
          </mxGeometry>
        </mxCell>
        <mxCell id="cFV7ejBLRMOV1y-EgFsQ-291" value="&lt;div style=&quot;width: 93.0px;height:auto;word-break: break-word;&quot;&gt;&lt;div&gt;&lt;span style=&quot;font-family: Arial; font-size: 12px; text-decoration: none; line-height: 0;&quot;&gt;&lt;span style=&quot;text-decoration: none; line-height: 14px;&quot;&gt;A_HUB&lt;/span&gt;&lt;/span&gt;&lt;/div&gt;&lt;/div&gt;" style="shape=ellipse;perimeter=ellipsePerimeter;shadow=0;strokeWidth=2;fillColor=#E6E6E6;strokeColor=#333333;opacity=100.0;html=1;nl2Br=0;verticalAlign=middle;align=right;spacingLeft=2.0;spacingRight=10;whiteSpace=wrap;gliffyId=12;" parent="2" vertex="1">
          <mxGeometry x="385" y="424" width="190" height="105" as="geometry" />
        </mxCell>
        <mxCell id="cFV7ejBLRMOV1y-EgFsQ-292" value="BK1_T" style="rounded=0;whiteSpace=wrap;html=1;align=left;" parent="2" vertex="1">
          <mxGeometry x="404.07000000000005" y="450" width="100" height="20" as="geometry" />
        </mxCell>
        <mxCell id="cFV7ejBLRMOV1y-EgFsQ-294" value="BK2_T" style="rounded=0;whiteSpace=wrap;html=1;align=left;" parent="2" vertex="1">
          <mxGeometry x="404.07000000000005" y="470" width="100" height="20" as="geometry" />
        </mxCell>
        <mxCell id="cFV7ejBLRMOV1y-EgFsQ-295" value="BK2_U" style="rounded=0;whiteSpace=wrap;html=1;align=left;" parent="2" vertex="1">
          <mxGeometry x="404.07000000000005" y="490" width="100" height="20" as="geometry" />
        </mxCell>
        <mxCell id="cFV7ejBLRMOV1y-EgFsQ-296" value="" style="shape=step;perimeter=stepPerimeter;whiteSpace=wrap;html=1;fixedSize=1;size=2.9999999999999716;fillColor=#cc0000;strokeColor=none;shadow=0;strokeWidth=2;opacity=100;spacingLeft=0.6;spacingRight=0;" parent="2" vertex="1">
          <mxGeometry x="449.07000000000005" y="456.5" width="10" height="10" as="geometry" />
        </mxCell>
        <mxCell id="cFV7ejBLRMOV1y-EgFsQ-298" value="" style="shape=step;perimeter=stepPerimeter;whiteSpace=wrap;html=1;fixedSize=1;size=2.9999999999999716;fillColor=#cc0000;strokeColor=none;shadow=0;strokeWidth=2;opacity=100;spacingLeft=0.6;spacingRight=0;" parent="2" vertex="1">
          <mxGeometry x="449.07000000000005" y="475.5" width="10" height="10" as="geometry" />
        </mxCell>
        <mxCell id="cFV7ejBLRMOV1y-EgFsQ-299" value="" style="shape=step;perimeter=stepPerimeter;whiteSpace=wrap;html=1;fixedSize=1;size=2.9999999999999716;fillColor=#7f00ff;strokeColor=none;shadow=0;strokeWidth=2;opacity=100;spacingLeft=0.6;spacingRight=0;" parent="2" vertex="1">
          <mxGeometry x="449.07000000000005" y="495.5" width="10" height="10" as="geometry" />
        </mxCell>
        <mxCell id="cFV7ejBLRMOV1y-EgFsQ-303" value="&lt;div style=&quot;width: 93.0px;height:auto;word-break: break-word;&quot;&gt;&lt;div&gt;&lt;span style=&quot;font-family: Arial; font-size: 12px; text-decoration: none; line-height: 0;&quot;&gt;&lt;span style=&quot;text-decoration: none; line-height: 14px;&quot; class=&quot;&quot;&gt;A_SAT&lt;/span&gt;&lt;/span&gt;&lt;/div&gt;&lt;/div&gt;" style="shape=rect;rounded=1;arcSize=15;absoluteArcSize=1;shadow=0;strokeWidth=2;fillColor=#E6E6E6;strokeColor=#333333;opacity=100.0;html=1;nl2Br=0;verticalAlign=middle;align=right;spacingLeft=2.0;spacingRight=10;whiteSpace=wrap;gliffyId=15;" parent="2" vertex="1">
          <mxGeometry x="385" y="300" width="190" height="110" as="geometry" />
        </mxCell>
        <mxCell id="cFV7ejBLRMOV1y-EgFsQ-304" value="C1" style="rounded=0;whiteSpace=wrap;html=1;align=left;" parent="2" vertex="1">
          <mxGeometry x="393.13" y="310" width="121.87" height="20" as="geometry" />
        </mxCell>
        <mxCell id="cFV7ejBLRMOV1y-EgFsQ-305" value="C2" style="rounded=0;whiteSpace=wrap;html=1;align=left;" parent="2" vertex="1">
          <mxGeometry x="393.13" y="335" width="121.87" height="20" as="geometry" />
        </mxCell>
        <mxCell id="cFV7ejBLRMOV1y-EgFsQ-318" style="shape=filledEdge;strokeWidth=2;strokeColor=#000000;fillColor=none;startArrow=none;startFill=0;startSize=6;endArrow=none;endFill=0;endSize=6;rounded=1;gliffyId=17;edgeStyle=orthogonalEdgeStyle;" parent="2" edge="1">
          <mxGeometry width="1" height="23" relative="1" as="geometry">
            <Array as="points">
              <mxPoint x="1100.93" y="328.25" />
              <mxPoint x="1100.93" y="336.5833435058594" />
              <mxPoint x="1100.93" y="344.9166564941406" />
              <mxPoint x="1100.93" y="353.25" />
            </Array>
            <mxPoint x="1035.9300000000003" y="409.5" as="sourcePoint" />
            <mxPoint x="1035.9300000000003" y="424.5" as="targetPoint" />
          </mxGeometry>
        </mxCell>
        <mxCell id="cFV7ejBLRMOV1y-EgFsQ-319" value="&lt;div style=&quot;width: 93.0px;height:auto;word-break: break-word;&quot;&gt;&lt;div&gt;&lt;span style=&quot;font-family: Arial; font-size: 12px; text-decoration: none; line-height: 0;&quot;&gt;&lt;span style=&quot;text-decoration: none; line-height: 14px;&quot; class=&quot;&quot;&gt;A_SAT&lt;/span&gt;&lt;/span&gt;&lt;/div&gt;&lt;/div&gt;" style="shape=rect;rounded=1;arcSize=15;absoluteArcSize=1;shadow=0;strokeWidth=2;fillColor=#E6E6E6;strokeColor=#333333;opacity=100.0;html=1;nl2Br=0;verticalAlign=middle;align=right;spacingLeft=2.0;spacingRight=10;whiteSpace=wrap;gliffyId=15;" parent="2" vertex="1">
          <mxGeometry x="955.75" y="300" width="190" height="110" as="geometry" />
        </mxCell>
        <mxCell id="cFV7ejBLRMOV1y-EgFsQ-320" value="&lt;div style=&quot;width: 93.0px;height:auto;word-break: break-word;&quot;&gt;&lt;div&gt;&lt;span style=&quot;font-family: Arial; font-size: 12px; text-decoration: none; line-height: 0;&quot;&gt;&lt;span style=&quot;text-decoration: none; line-height: 14px;&quot;&gt;A_HUB&lt;/span&gt;&lt;/span&gt;&lt;/div&gt;&lt;/div&gt;" style="shape=ellipse;perimeter=ellipsePerimeter;shadow=0;strokeWidth=2;fillColor=#E6E6E6;strokeColor=#333333;opacity=100.0;html=1;nl2Br=0;verticalAlign=middle;align=right;spacingLeft=2.0;spacingRight=10;whiteSpace=wrap;gliffyId=12;" parent="2" vertex="1">
          <mxGeometry x="955.75" y="425" width="190" height="105" as="geometry" />
        </mxCell>
        <mxCell id="cFV7ejBLRMOV1y-EgFsQ-321" value="C1_T" style="rounded=0;whiteSpace=wrap;html=1;align=left;" parent="2" vertex="1">
          <mxGeometry x="963.88" y="310" width="121.87" height="20" as="geometry" />
        </mxCell>
        <mxCell id="cFV7ejBLRMOV1y-EgFsQ-322" value="C1_U" style="rounded=0;whiteSpace=wrap;html=1;align=left;" parent="2" vertex="1">
          <mxGeometry x="963.88" y="330" width="121.87" height="20" as="geometry" />
        </mxCell>
        <mxCell id="cFV7ejBLRMOV1y-EgFsQ-324" value="C2_U" style="rounded=0;whiteSpace=wrap;html=1;align=left;" parent="2" vertex="1">
          <mxGeometry x="963.88" y="370" width="121.87" height="20" as="geometry" />
        </mxCell>
        <mxCell id="cFV7ejBLRMOV1y-EgFsQ-325" value="BK1_T" style="rounded=0;whiteSpace=wrap;html=1;align=left;" parent="2" vertex="1">
          <mxGeometry x="974.82" y="435" width="100" height="20" as="geometry" />
        </mxCell>
        <mxCell id="cFV7ejBLRMOV1y-EgFsQ-326" value="BK1_U" style="rounded=0;whiteSpace=wrap;html=1;align=left;" parent="2" vertex="1">
          <mxGeometry x="974.82" y="455" width="100" height="20" as="geometry" />
        </mxCell>
        <mxCell id="cFV7ejBLRMOV1y-EgFsQ-327" value="BK2_T" style="rounded=0;whiteSpace=wrap;html=1;align=left;" parent="2" vertex="1">
          <mxGeometry x="974.82" y="475" width="100" height="20" as="geometry" />
        </mxCell>
        <mxCell id="cFV7ejBLRMOV1y-EgFsQ-328" value="BK2_U" style="rounded=0;whiteSpace=wrap;html=1;align=left;" parent="2" vertex="1">
          <mxGeometry x="974.82" y="495" width="100" height="20" as="geometry" />
        </mxCell>
        <mxCell id="cFV7ejBLRMOV1y-EgFsQ-329" value="" style="ellipse;whiteSpace=wrap;html=1;strokeColor=none;fillColor=#cc0000;" parent="2" vertex="1">
          <mxGeometry x="1095.75" y="368" width="10" height="11" as="geometry" />
        </mxCell>
        <mxCell id="cFV7ejBLRMOV1y-EgFsQ-330" value="" style="ellipse;whiteSpace=wrap;html=1;strokeColor=none;fillColor=#7f00ff;" parent="2" vertex="1">
          <mxGeometry x="1114.5" y="368" width="10" height="11" as="geometry" />
        </mxCell>
        <mxCell id="cFV7ejBLRMOV1y-EgFsQ-331" value="" style="shape=step;perimeter=stepPerimeter;whiteSpace=wrap;html=1;fixedSize=1;size=2.9999999999999716;fillColor=#7f00ff;strokeColor=none;shadow=0;strokeWidth=2;opacity=100;spacingLeft=0.6;spacingRight=0;" parent="2" vertex="1">
          <mxGeometry x="1020.93" y="334.5" width="10" height="10" as="geometry" />
        </mxCell>
        <mxCell id="cFV7ejBLRMOV1y-EgFsQ-332" value="" style="shape=step;perimeter=stepPerimeter;whiteSpace=wrap;html=1;fixedSize=1;size=2.9999999999999716;fillColor=#cc0000;strokeColor=none;shadow=0;strokeWidth=2;opacity=100;spacingLeft=0.6;spacingRight=0;" parent="2" vertex="1">
          <mxGeometry x="1020.93" y="314.5" width="10" height="10" as="geometry" />
        </mxCell>
        <mxCell id="cFV7ejBLRMOV1y-EgFsQ-333" value="" style="shape=step;perimeter=stepPerimeter;whiteSpace=wrap;html=1;fixedSize=1;size=2.9999999999999716;fillColor=#7f00ff;strokeColor=none;shadow=0;strokeWidth=2;opacity=100;spacingLeft=0.6;spacingRight=0;" parent="2" vertex="1">
          <mxGeometry x="1020.93" y="374.5" width="10" height="10" as="geometry" />
        </mxCell>
        <mxCell id="cFV7ejBLRMOV1y-EgFsQ-335" value="" style="shape=step;perimeter=stepPerimeter;whiteSpace=wrap;html=1;fixedSize=1;size=2.9999999999999716;fillColor=#cc0000;strokeColor=none;shadow=0;strokeWidth=2;opacity=100;spacingLeft=0.6;spacingRight=0;" parent="2" vertex="1">
          <mxGeometry x="1020.0000000000001" y="440.5" width="10" height="10" as="geometry" />
        </mxCell>
        <mxCell id="cFV7ejBLRMOV1y-EgFsQ-336" value="" style="shape=step;perimeter=stepPerimeter;whiteSpace=wrap;html=1;fixedSize=1;size=2.9999999999999716;fillColor=#7f00ff;strokeColor=none;shadow=0;strokeWidth=2;opacity=100;spacingLeft=0.6;spacingRight=0;" parent="2" vertex="1">
          <mxGeometry x="1020.0000000000001" y="460.5" width="10" height="10" as="geometry" />
        </mxCell>
        <mxCell id="cFV7ejBLRMOV1y-EgFsQ-337" value="" style="shape=step;perimeter=stepPerimeter;whiteSpace=wrap;html=1;fixedSize=1;size=2.9999999999999716;fillColor=#cc0000;strokeColor=none;shadow=0;strokeWidth=2;opacity=100;spacingLeft=0.6;spacingRight=0;" parent="2" vertex="1">
          <mxGeometry x="1020.0000000000001" y="479.5" width="10" height="10" as="geometry" />
        </mxCell>
        <mxCell id="cFV7ejBLRMOV1y-EgFsQ-338" value="" style="shape=step;perimeter=stepPerimeter;whiteSpace=wrap;html=1;fixedSize=1;size=2.9999999999999716;fillColor=#7f00ff;strokeColor=none;shadow=0;strokeWidth=2;opacity=100;spacingLeft=0.6;spacingRight=0;" parent="2" vertex="1">
          <mxGeometry x="1020.0000000000001" y="499.5" width="10" height="10" as="geometry" />
        </mxCell>
        <mxCell id="cFV7ejBLRMOV1y-EgFsQ-339" value="" style="ellipse;whiteSpace=wrap;html=1;strokeColor=none;fillColor=#cc0000;" parent="2" vertex="1">
          <mxGeometry x="1095.75" y="488.5" width="10" height="11" as="geometry" />
        </mxCell>
        <mxCell id="cFV7ejBLRMOV1y-EgFsQ-340" value="" style="ellipse;whiteSpace=wrap;html=1;strokeColor=none;fillColor=#7f00ff;" parent="2" vertex="1">
          <mxGeometry x="1114.5" y="488.5" width="10" height="11" as="geometry" />
        </mxCell>
        <mxCell id="cFV7ejBLRMOV1y-EgFsQ-974" value="Arrows annotate the direction of induction" style="shape=rect;shadow=0;strokeWidth=0;strokeColor=none;fillColor=#cccccc;opacity=100.0;html=1;nl2Br=0;verticalAlign=top;align=left;spacingLeft=10;spacingRight=0;spacingTop=0;spacingBottom=0;whiteSpace=wrap;gliffyId=345;spacing=0;" parent="2" vertex="1">
          <mxGeometry x="630" y="10" width="150" height="50" as="geometry" />
        </mxCell>
        <mxCell id="BHV4HIjAjoOKH4ibJQ7y-105" style="edgeStyle=orthogonalEdgeStyle;shape=filledEdge;rounded=1;orthogonalLoop=1;jettySize=auto;html=1;labelBackgroundColor=default;strokeColor=#000000;strokeWidth=2;fontFamily=Helvetica;fontSize=11;fontColor=default;startArrow=none;startFill=0;endArrow=blockThin;endFill=1;startSize=6;endSize=6;fillColor=none;" edge="1" parent="2">
          <mxGeometry relative="1" as="geometry">
            <mxPoint x="188.75" y="424" as="sourcePoint" />
            <mxPoint x="188.75" y="410" as="targetPoint" />
          </mxGeometry>
        </mxCell>
        <mxCell id="BHV4HIjAjoOKH4ibJQ7y-106" value="&lt;div style=&quot;width: 93.0px;height:auto;word-break: break-word;&quot;&gt;&lt;div&gt;&lt;span style=&quot;font-family: Arial; font-size: 12px; text-decoration: none; line-height: 0;&quot;&gt;&lt;span style=&quot;text-decoration: none; line-height: 14px;&quot;&gt;A_HUB&lt;/span&gt;&lt;/span&gt;&lt;/div&gt;&lt;/div&gt;" style="shape=ellipse;perimeter=ellipsePerimeter;shadow=0;strokeWidth=2;fillColor=#E6E6E6;strokeColor=#333333;opacity=100.0;html=1;nl2Br=0;verticalAlign=middle;align=right;spacingLeft=2.0;spacingRight=10;whiteSpace=wrap;gliffyId=12;" vertex="1" parent="2">
          <mxGeometry x="80" y="424" width="190" height="105" as="geometry" />
        </mxCell>
        <mxCell id="BHV4HIjAjoOKH4ibJQ7y-107" value="BK1_T" style="rounded=0;whiteSpace=wrap;html=1;align=left;" vertex="1" parent="2">
          <mxGeometry x="99.07000000000005" y="434" width="100" height="20" as="geometry" />
        </mxCell>
        <mxCell id="BHV4HIjAjoOKH4ibJQ7y-108" value="BK1" style="rounded=0;whiteSpace=wrap;html=1;align=left;" vertex="1" parent="2">
          <mxGeometry x="99.07000000000005" y="454" width="100" height="20" as="geometry" />
        </mxCell>
        <mxCell id="BHV4HIjAjoOKH4ibJQ7y-109" value="BK2_T" style="rounded=0;whiteSpace=wrap;html=1;align=left;" vertex="1" parent="2">
          <mxGeometry x="99.07000000000005" y="474" width="100" height="20" as="geometry" />
        </mxCell>
        <mxCell id="BHV4HIjAjoOKH4ibJQ7y-110" value="BK2_U" style="rounded=0;whiteSpace=wrap;html=1;align=left;" vertex="1" parent="2">
          <mxGeometry x="99.07000000000005" y="494" width="100" height="20" as="geometry" />
        </mxCell>
        <mxCell id="BHV4HIjAjoOKH4ibJQ7y-111" value="" style="shape=step;perimeter=stepPerimeter;whiteSpace=wrap;html=1;fixedSize=1;size=2.9999999999999716;fillColor=#cc0000;strokeColor=none;shadow=0;strokeWidth=2;opacity=100;spacingLeft=0.6;spacingRight=0;" vertex="1" parent="2">
          <mxGeometry x="144.07000000000005" y="440.5" width="10" height="10" as="geometry" />
        </mxCell>
        <mxCell id="BHV4HIjAjoOKH4ibJQ7y-113" value="" style="shape=step;perimeter=stepPerimeter;whiteSpace=wrap;html=1;fixedSize=1;size=2.9999999999999716;fillColor=#cc0000;strokeColor=none;shadow=0;strokeWidth=2;opacity=100;spacingLeft=0.6;spacingRight=0;" vertex="1" parent="2">
          <mxGeometry x="144.07000000000005" y="479.5" width="10" height="10" as="geometry" />
        </mxCell>
        <mxCell id="BHV4HIjAjoOKH4ibJQ7y-114" value="" style="shape=step;perimeter=stepPerimeter;whiteSpace=wrap;html=1;fixedSize=1;size=2.9999999999999716;fillColor=#7f00ff;strokeColor=none;shadow=0;strokeWidth=2;opacity=100;spacingLeft=0.6;spacingRight=0;" vertex="1" parent="2">
          <mxGeometry x="144.07000000000005" y="499.5" width="10" height="10" as="geometry" />
        </mxCell>
        <mxCell id="BHV4HIjAjoOKH4ibJQ7y-117" value="&lt;div style=&quot;width: 93.0px;height:auto;word-break: break-word;&quot;&gt;&lt;div&gt;&lt;span style=&quot;font-family: Arial; font-size: 12px; text-decoration: none; line-height: 0;&quot;&gt;&lt;span style=&quot;text-decoration: none; line-height: 14px;&quot; class=&quot;&quot;&gt;A_SAT&lt;/span&gt;&lt;/span&gt;&lt;/div&gt;&lt;/div&gt;" style="shape=rect;rounded=1;arcSize=15;absoluteArcSize=1;shadow=0;strokeWidth=2;fillColor=#E6E6E6;strokeColor=#333333;opacity=100.0;html=1;nl2Br=0;verticalAlign=middle;align=right;spacingLeft=2.0;spacingRight=10;whiteSpace=wrap;gliffyId=15;" vertex="1" parent="2">
          <mxGeometry x="80" y="300" width="190" height="110" as="geometry" />
        </mxCell>
        <mxCell id="BHV4HIjAjoOKH4ibJQ7y-118" value="C1" style="rounded=0;whiteSpace=wrap;html=1;align=left;" vertex="1" parent="2">
          <mxGeometry x="88.13" y="310" width="121.87" height="20" as="geometry" />
        </mxCell>
        <mxCell id="BHV4HIjAjoOKH4ibJQ7y-119" value="C2" style="rounded=0;whiteSpace=wrap;html=1;align=left;" vertex="1" parent="2">
          <mxGeometry x="88.13" y="335" width="121.87" height="20" as="geometry" />
        </mxCell>
        <mxCell id="BHV4HIjAjoOKH4ibJQ7y-127" value="U Relation incomplete" style="shape=callout;whiteSpace=wrap;html=1;perimeter=calloutPerimeter;direction=south;position2=1;fillColor=#FFFF66;" vertex="1" parent="2">
          <mxGeometry x="180" y="390" width="110" height="70" as="geometry" />
        </mxCell>
        <mxCell id="BHV4HIjAjoOKH4ibJQ7y-128" value="U Relation incomplete" style="shape=callout;whiteSpace=wrap;html=1;perimeter=calloutPerimeter;direction=south;position2=0;fillColor=#FFFF66;size=30;position=0.2;" vertex="1" parent="2">
          <mxGeometry x="480" y="500" width="110" height="50" as="geometry" />
        </mxCell>
        <mxCell id="BHV4HIjAjoOKH4ibJQ7y-129" value="" style="shape=step;perimeter=stepPerimeter;whiteSpace=wrap;html=1;fixedSize=1;size=2.9999999999999716;fillColor=default;strokeColor=default;shadow=0;strokeWidth=2;opacity=100;spacingLeft=0.6;spacingRight=0;" vertex="1" parent="2">
          <mxGeometry x="170.00000000000006" y="460" width="10" height="10" as="geometry" />
        </mxCell>
        <mxCell id="BHV4HIjAjoOKH4ibJQ7y-133" value="T Relation incomplete" style="shape=callout;whiteSpace=wrap;html=1;perimeter=calloutPerimeter;direction=south;position2=0;fillColor=#FFFF66;size=30;position=0.14;" vertex="1" parent="2">
          <mxGeometry x="780" y="370" width="100" height="70" as="geometry" />
        </mxCell>
        <mxCell id="BHV4HIjAjoOKH4ibJQ7y-134" value="" style="shape=step;perimeter=stepPerimeter;whiteSpace=wrap;html=1;fixedSize=1;size=2.9999999999999716;fillColor=default;strokeColor=default;shadow=0;strokeWidth=2;opacity=100;spacingLeft=0.6;spacingRight=0;" vertex="1" parent="2">
          <mxGeometry x="788" y="355" width="10" height="10" as="geometry" />
        </mxCell>
        <mxCell id="BHV4HIjAjoOKH4ibJQ7y-135" value="T Relation incomplete" style="shape=callout;whiteSpace=wrap;html=1;perimeter=calloutPerimeter;direction=west;position2=0.57;fillColor=#FFFF66;size=40;position=0.43;base=20;" vertex="1" parent="2">
          <mxGeometry x="1030" y="360" width="70" height="120" as="geometry" />
        </mxCell>
        <mxCell id="BHV4HIjAjoOKH4ibJQ7y-136" style="shape=filledEdge;strokeWidth=2;strokeColor=#000000;fillColor=none;startArrow=none;startFill=0;startSize=6;endArrow=none;endFill=0;endSize=6;rounded=1;gliffyId=17;edgeStyle=orthogonalEdgeStyle;" edge="1" parent="2">
          <mxGeometry width="1" height="23" relative="1" as="geometry">
            <Array as="points">
              <mxPoint x="225.18000000000006" y="618.25" />
              <mxPoint x="225.18000000000006" y="626.5833435058594" />
              <mxPoint x="225.18000000000006" y="634.9166564941406" />
              <mxPoint x="225.18000000000006" y="643.25" />
            </Array>
            <mxPoint x="160.1800000000003" y="699.5" as="sourcePoint" />
            <mxPoint x="160.1800000000003" y="714.5" as="targetPoint" />
          </mxGeometry>
        </mxCell>
        <mxCell id="BHV4HIjAjoOKH4ibJQ7y-137" value="&lt;div style=&quot;width: 93.0px;height:auto;word-break: break-word;&quot;&gt;&lt;div&gt;&lt;span style=&quot;font-family: Arial; font-size: 12px; text-decoration: none; line-height: 0;&quot;&gt;&lt;span style=&quot;text-decoration: none; line-height: 14px;&quot; class=&quot;&quot;&gt;A_SAT&lt;/span&gt;&lt;/span&gt;&lt;/div&gt;&lt;/div&gt;" style="shape=rect;rounded=1;arcSize=15;absoluteArcSize=1;shadow=0;strokeWidth=2;fillColor=#E6E6E6;strokeColor=#333333;opacity=100.0;html=1;nl2Br=0;verticalAlign=middle;align=right;spacingLeft=2.0;spacingRight=10;whiteSpace=wrap;gliffyId=15;" vertex="1" parent="2">
          <mxGeometry x="80" y="590" width="190" height="110" as="geometry" />
        </mxCell>
        <mxCell id="BHV4HIjAjoOKH4ibJQ7y-138" value="&lt;div style=&quot;width: 93.0px;height:auto;word-break: break-word;&quot;&gt;&lt;div&gt;&lt;span style=&quot;font-family: Arial; font-size: 12px; text-decoration: none; line-height: 0;&quot;&gt;&lt;span style=&quot;text-decoration: none; line-height: 14px;&quot;&gt;A_HUB&lt;/span&gt;&lt;/span&gt;&lt;/div&gt;&lt;/div&gt;" style="shape=ellipse;perimeter=ellipsePerimeter;shadow=0;strokeWidth=2;fillColor=#E6E6E6;strokeColor=#333333;opacity=100.0;html=1;nl2Br=0;verticalAlign=middle;align=right;spacingLeft=2.0;spacingRight=10;whiteSpace=wrap;gliffyId=12;" vertex="1" parent="2">
          <mxGeometry x="80" y="715" width="190" height="105" as="geometry" />
        </mxCell>
        <mxCell id="BHV4HIjAjoOKH4ibJQ7y-139" value="C1_T" style="rounded=0;whiteSpace=wrap;html=1;align=left;" vertex="1" parent="2">
          <mxGeometry x="88.13" y="600" width="121.87" height="20" as="geometry" />
        </mxCell>
        <mxCell id="BHV4HIjAjoOKH4ibJQ7y-140" value="C1_U" style="rounded=0;whiteSpace=wrap;html=1;align=left;" vertex="1" parent="2">
          <mxGeometry x="88.13" y="620" width="121.87" height="20" as="geometry" />
        </mxCell>
        <mxCell id="BHV4HIjAjoOKH4ibJQ7y-141" value="C2_T" style="rounded=0;whiteSpace=wrap;html=1;align=left;" vertex="1" parent="2">
          <mxGeometry x="88.13" y="640" width="121.87" height="20" as="geometry" />
        </mxCell>
        <mxCell id="BHV4HIjAjoOKH4ibJQ7y-142" value="C2_U" style="rounded=0;whiteSpace=wrap;html=1;align=left;" vertex="1" parent="2">
          <mxGeometry x="88.13" y="660" width="121.87" height="20" as="geometry" />
        </mxCell>
        <mxCell id="BHV4HIjAjoOKH4ibJQ7y-143" value="BK1" style="rounded=0;whiteSpace=wrap;html=1;align=left;" vertex="1" parent="2">
          <mxGeometry x="99.07000000000005" y="745" width="100" height="20" as="geometry" />
        </mxCell>
        <mxCell id="BHV4HIjAjoOKH4ibJQ7y-144" value="BK2" style="rounded=0;whiteSpace=wrap;html=1;align=left;" vertex="1" parent="2">
          <mxGeometry x="99.07000000000005" y="765" width="100" height="20" as="geometry" />
        </mxCell>
        <mxCell id="BHV4HIjAjoOKH4ibJQ7y-145" value="" style="ellipse;whiteSpace=wrap;html=1;strokeColor=none;fillColor=#cc0000;" vertex="1" parent="2">
          <mxGeometry x="220" y="658" width="10" height="11" as="geometry" />
        </mxCell>
        <mxCell id="BHV4HIjAjoOKH4ibJQ7y-146" value="" style="ellipse;whiteSpace=wrap;html=1;strokeColor=none;fillColor=#7f00ff;" vertex="1" parent="2">
          <mxGeometry x="238.75" y="658" width="10" height="11" as="geometry" />
        </mxCell>
        <mxCell id="BHV4HIjAjoOKH4ibJQ7y-147" value="" style="shape=step;perimeter=stepPerimeter;whiteSpace=wrap;html=1;fixedSize=1;size=2.9999999999999716;fillColor=#7f00ff;strokeColor=none;shadow=0;strokeWidth=2;opacity=100;spacingLeft=0.6;spacingRight=0;" vertex="1" parent="2">
          <mxGeometry x="145.17999999999984" y="624.5" width="10" height="10" as="geometry" />
        </mxCell>
        <mxCell id="BHV4HIjAjoOKH4ibJQ7y-148" value="" style="shape=step;perimeter=stepPerimeter;whiteSpace=wrap;html=1;fixedSize=1;size=2.9999999999999716;fillColor=#cc0000;strokeColor=none;shadow=0;strokeWidth=2;opacity=100;spacingLeft=0.6;spacingRight=0;" vertex="1" parent="2">
          <mxGeometry x="145.17999999999984" y="604.5" width="10" height="10" as="geometry" />
        </mxCell>
        <mxCell id="BHV4HIjAjoOKH4ibJQ7y-149" value="" style="shape=step;perimeter=stepPerimeter;whiteSpace=wrap;html=1;fixedSize=1;size=2.9999999999999716;fillColor=#7f00ff;strokeColor=none;shadow=0;strokeWidth=2;opacity=100;spacingLeft=0.6;spacingRight=0;" vertex="1" parent="2">
          <mxGeometry x="145.17999999999984" y="664.5" width="10" height="10" as="geometry" />
        </mxCell>
        <mxCell id="BHV4HIjAjoOKH4ibJQ7y-150" value="" style="shape=step;perimeter=stepPerimeter;whiteSpace=wrap;html=1;fixedSize=1;size=2.9999999999999716;fillColor=#cc0000;strokeColor=none;shadow=0;strokeWidth=2;opacity=100;spacingLeft=0.6;spacingRight=0;" vertex="1" parent="2">
          <mxGeometry x="145.17999999999984" y="644.5" width="10" height="10" as="geometry" />
        </mxCell>
        <mxCell id="BHV4HIjAjoOKH4ibJQ7y-151" value="" style="group" vertex="1" connectable="0" parent="2">
          <mxGeometry x="234.25" y="780" width="10" height="11.25" as="geometry" />
        </mxCell>
        <mxCell id="BHV4HIjAjoOKH4ibJQ7y-152" value="" style="ellipse;whiteSpace=wrap;html=1;strokeColor=none;fillColor=#000000;" vertex="1" parent="BHV4HIjAjoOKH4ibJQ7y-151">
          <mxGeometry y="0.25" width="10" height="11" as="geometry" />
        </mxCell>
        <mxCell id="BHV4HIjAjoOKH4ibJQ7y-153" value="" style="verticalLabelPosition=bottom;verticalAlign=top;html=1;shape=mxgraph.basic.star;fillColor=#FFFFFF;strokeColor=none;" vertex="1" parent="BHV4HIjAjoOKH4ibJQ7y-151">
          <mxGeometry width="10" height="10" as="geometry" />
        </mxCell>
        <mxCell id="BHV4HIjAjoOKH4ibJQ7y-154" value="Relation not in hub" style="shape=callout;whiteSpace=wrap;html=1;perimeter=calloutPerimeter;direction=west;position2=0.43;fillColor=#FFFF66;size=30;position=0.43;base=20;" vertex="1" parent="2">
          <mxGeometry x="190" y="680" width="70" height="80" as="geometry" />
        </mxCell>
        <mxCell id="BHV4HIjAjoOKH4ibJQ7y-156" style="shape=filledEdge;strokeWidth=2;strokeColor=#000000;fillColor=none;startArrow=none;startFill=0;startSize=6;endArrow=none;endFill=0;endSize=6;rounded=1;gliffyId=17;edgeStyle=orthogonalEdgeStyle;" edge="1" parent="2">
          <mxGeometry width="1" height="23" relative="1" as="geometry">
            <Array as="points">
              <mxPoint x="515.1800000000001" y="618.25" />
              <mxPoint x="515.1800000000001" y="626.5833435058594" />
              <mxPoint x="515.1800000000001" y="634.9166564941406" />
              <mxPoint x="515.1800000000001" y="643.25" />
            </Array>
            <mxPoint x="450.1800000000003" y="699.5" as="sourcePoint" />
            <mxPoint x="450.1800000000003" y="714.5" as="targetPoint" />
          </mxGeometry>
        </mxCell>
        <mxCell id="BHV4HIjAjoOKH4ibJQ7y-157" value="&lt;div style=&quot;width: 93.0px;height:auto;word-break: break-word;&quot;&gt;&lt;div&gt;&lt;span style=&quot;font-family: Arial; font-size: 12px; text-decoration: none; line-height: 0;&quot;&gt;&lt;span style=&quot;text-decoration: none; line-height: 14px;&quot; class=&quot;&quot;&gt;A_SAT&lt;/span&gt;&lt;/span&gt;&lt;/div&gt;&lt;/div&gt;" style="shape=rect;rounded=1;arcSize=15;absoluteArcSize=1;shadow=0;strokeWidth=2;fillColor=#E6E6E6;strokeColor=#333333;opacity=100.0;html=1;nl2Br=0;verticalAlign=middle;align=right;spacingLeft=2.0;spacingRight=10;whiteSpace=wrap;gliffyId=15;" vertex="1" parent="2">
          <mxGeometry x="370" y="590" width="190" height="110" as="geometry" />
        </mxCell>
        <mxCell id="BHV4HIjAjoOKH4ibJQ7y-158" value="&lt;div style=&quot;width: 93.0px;height:auto;word-break: break-word;&quot;&gt;&lt;div&gt;&lt;span style=&quot;font-family: Arial; font-size: 12px; text-decoration: none; line-height: 0;&quot;&gt;&lt;span style=&quot;text-decoration: none; line-height: 14px;&quot;&gt;A_HUB&lt;/span&gt;&lt;/span&gt;&lt;/div&gt;&lt;/div&gt;" style="shape=ellipse;perimeter=ellipsePerimeter;shadow=0;strokeWidth=2;fillColor=#E6E6E6;strokeColor=#333333;opacity=100.0;html=1;nl2Br=0;verticalAlign=middle;align=right;spacingLeft=2.0;spacingRight=10;whiteSpace=wrap;gliffyId=12;" vertex="1" parent="2">
          <mxGeometry x="370" y="715" width="190" height="105" as="geometry" />
        </mxCell>
        <mxCell id="BHV4HIjAjoOKH4ibJQ7y-159" value="C1_T" style="rounded=0;whiteSpace=wrap;html=1;align=left;" vertex="1" parent="2">
          <mxGeometry x="378.13" y="600" width="121.87" height="20" as="geometry" />
        </mxCell>
        <mxCell id="BHV4HIjAjoOKH4ibJQ7y-160" value="C1_U" style="rounded=0;whiteSpace=wrap;html=1;align=left;" vertex="1" parent="2">
          <mxGeometry x="378.13" y="620" width="121.87" height="20" as="geometry" />
        </mxCell>
        <mxCell id="BHV4HIjAjoOKH4ibJQ7y-161" value="C2_T" style="rounded=0;whiteSpace=wrap;html=1;align=left;" vertex="1" parent="2">
          <mxGeometry x="378.13" y="640" width="121.87" height="20" as="geometry" />
        </mxCell>
        <mxCell id="BHV4HIjAjoOKH4ibJQ7y-162" value="C2_U" style="rounded=0;whiteSpace=wrap;html=1;align=left;" vertex="1" parent="2">
          <mxGeometry x="378.13" y="660" width="121.87" height="20" as="geometry" />
        </mxCell>
        <mxCell id="BHV4HIjAjoOKH4ibJQ7y-163" value="BK1" style="rounded=0;whiteSpace=wrap;html=1;align=left;" vertex="1" parent="2">
          <mxGeometry x="389.07000000000005" y="745" width="100" height="20" as="geometry" />
        </mxCell>
        <mxCell id="BHV4HIjAjoOKH4ibJQ7y-164" value="BK2" style="rounded=0;whiteSpace=wrap;html=1;align=left;" vertex="1" parent="2">
          <mxGeometry x="389.07000000000005" y="765" width="100" height="20" as="geometry" />
        </mxCell>
        <mxCell id="BHV4HIjAjoOKH4ibJQ7y-165" value="" style="ellipse;whiteSpace=wrap;html=1;strokeColor=none;fillColor=#cc0000;" vertex="1" parent="2">
          <mxGeometry x="510" y="658" width="10" height="11" as="geometry" />
        </mxCell>
        <mxCell id="BHV4HIjAjoOKH4ibJQ7y-166" value="" style="ellipse;whiteSpace=wrap;html=1;strokeColor=none;fillColor=#7f00ff;" vertex="1" parent="2">
          <mxGeometry x="528.75" y="658" width="10" height="11" as="geometry" />
        </mxCell>
        <mxCell id="BHV4HIjAjoOKH4ibJQ7y-167" value="" style="shape=step;perimeter=stepPerimeter;whiteSpace=wrap;html=1;fixedSize=1;size=2.9999999999999716;fillColor=#7f00ff;strokeColor=none;shadow=0;strokeWidth=2;opacity=100;spacingLeft=0.6;spacingRight=0;" vertex="1" parent="2">
          <mxGeometry x="435.17999999999984" y="624.5" width="10" height="10" as="geometry" />
        </mxCell>
        <mxCell id="BHV4HIjAjoOKH4ibJQ7y-168" value="" style="shape=step;perimeter=stepPerimeter;whiteSpace=wrap;html=1;fixedSize=1;size=2.9999999999999716;fillColor=#cc0000;strokeColor=none;shadow=0;strokeWidth=2;opacity=100;spacingLeft=0.6;spacingRight=0;" vertex="1" parent="2">
          <mxGeometry x="435.17999999999984" y="604.5" width="10" height="10" as="geometry" />
        </mxCell>
        <mxCell id="BHV4HIjAjoOKH4ibJQ7y-169" value="" style="shape=step;perimeter=stepPerimeter;whiteSpace=wrap;html=1;fixedSize=1;size=2.9999999999999716;fillColor=#7f00ff;strokeColor=none;shadow=0;strokeWidth=2;opacity=100;spacingLeft=0.6;spacingRight=0;" vertex="1" parent="2">
          <mxGeometry x="435.17999999999984" y="664.5" width="10" height="10" as="geometry" />
        </mxCell>
        <mxCell id="BHV4HIjAjoOKH4ibJQ7y-170" value="" style="shape=step;perimeter=stepPerimeter;whiteSpace=wrap;html=1;fixedSize=1;size=2.9999999999999716;fillColor=#cc0000;strokeColor=none;shadow=0;strokeWidth=2;opacity=100;spacingLeft=0.6;spacingRight=0;" vertex="1" parent="2">
          <mxGeometry x="435.17999999999984" y="644.5" width="10" height="10" as="geometry" />
        </mxCell>
        <mxCell id="BHV4HIjAjoOKH4ibJQ7y-174" value="" style="shape=step;perimeter=stepPerimeter;whiteSpace=wrap;html=1;fixedSize=1;size=2.9999999999999716;fillColor=#cc0000;strokeColor=none;shadow=0;strokeWidth=2;opacity=100;spacingLeft=0.6;spacingRight=0;" vertex="1" parent="2">
          <mxGeometry x="459.9999999999998" y="750" width="10" height="10" as="geometry" />
        </mxCell>
        <mxCell id="BHV4HIjAjoOKH4ibJQ7y-175" value="" style="shape=step;perimeter=stepPerimeter;whiteSpace=wrap;html=1;fixedSize=1;size=2.9999999999999716;fillColor=#cc0000;strokeColor=none;shadow=0;strokeWidth=2;opacity=100;spacingLeft=0.6;spacingRight=0;" vertex="1" parent="2">
          <mxGeometry x="459.9999999999998" y="769" width="10" height="10" as="geometry" />
        </mxCell>
        <mxCell id="BHV4HIjAjoOKH4ibJQ7y-176" value="" style="ellipse;whiteSpace=wrap;html=1;strokeColor=none;fillColor=#cc0000;" vertex="1" parent="2">
          <mxGeometry x="520" y="780" width="10" height="11" as="geometry" />
        </mxCell>
        <mxCell id="BHV4HIjAjoOKH4ibJQ7y-177" value="Relation U not in hub" style="shape=callout;whiteSpace=wrap;html=1;perimeter=calloutPerimeter;direction=west;position2=0.43;fillColor=#FFFF66;size=30;position=0.43;base=20;" vertex="1" parent="2">
          <mxGeometry x="490" y="680" width="70" height="80" as="geometry" />
        </mxCell>
        <mxCell id="BHV4HIjAjoOKH4ibJQ7y-214" style="shape=filledEdge;strokeWidth=2;strokeColor=#000000;fillColor=none;startArrow=none;startFill=0;startSize=6;endArrow=none;endFill=0;endSize=6;rounded=1;gliffyId=17;edgeStyle=orthogonalEdgeStyle;" edge="1" parent="2">
          <mxGeometry width="1" height="23" relative="1" as="geometry">
            <Array as="points">
              <mxPoint x="825.1800000000001" y="618.25" />
              <mxPoint x="825.1800000000001" y="626.5833435058594" />
              <mxPoint x="825.1800000000001" y="634.9166564941406" />
              <mxPoint x="825.1800000000001" y="643.25" />
            </Array>
            <mxPoint x="760.1800000000003" y="699.5" as="sourcePoint" />
            <mxPoint x="760.1800000000003" y="714.5" as="targetPoint" />
          </mxGeometry>
        </mxCell>
        <mxCell id="BHV4HIjAjoOKH4ibJQ7y-215" value="&lt;div style=&quot;width: 93.0px;height:auto;word-break: break-word;&quot;&gt;&lt;div&gt;&lt;span style=&quot;font-family: Arial; font-size: 12px; text-decoration: none; line-height: 0;&quot;&gt;&lt;span style=&quot;text-decoration: none; line-height: 14px;&quot; class=&quot;&quot;&gt;A_SAT&lt;/span&gt;&lt;/span&gt;&lt;/div&gt;&lt;/div&gt;" style="shape=rect;rounded=1;arcSize=15;absoluteArcSize=1;shadow=0;strokeWidth=2;fillColor=#E6E6E6;strokeColor=#333333;opacity=100.0;html=1;nl2Br=0;verticalAlign=middle;align=right;spacingLeft=2.0;spacingRight=10;whiteSpace=wrap;gliffyId=15;" vertex="1" parent="2">
          <mxGeometry x="680" y="590" width="190" height="110" as="geometry" />
        </mxCell>
        <mxCell id="BHV4HIjAjoOKH4ibJQ7y-216" value="&lt;div style=&quot;width: 93.0px;height:auto;word-break: break-word;&quot;&gt;&lt;div&gt;&lt;span style=&quot;font-family: Arial; font-size: 12px; text-decoration: none; line-height: 0;&quot;&gt;&lt;span style=&quot;text-decoration: none; line-height: 14px;&quot;&gt;A_HUB&lt;/span&gt;&lt;/span&gt;&lt;/div&gt;&lt;/div&gt;" style="shape=ellipse;perimeter=ellipsePerimeter;shadow=0;strokeWidth=2;fillColor=#E6E6E6;strokeColor=#333333;opacity=100.0;html=1;nl2Br=0;verticalAlign=middle;align=right;spacingLeft=2.0;spacingRight=10;whiteSpace=wrap;gliffyId=12;" vertex="1" parent="2">
          <mxGeometry x="680" y="715" width="190" height="105" as="geometry" />
        </mxCell>
        <mxCell id="BHV4HIjAjoOKH4ibJQ7y-217" value="C1" style="rounded=0;whiteSpace=wrap;html=1;align=left;" vertex="1" parent="2">
          <mxGeometry x="688.1299999999999" y="600" width="121.87" height="20" as="geometry" />
        </mxCell>
        <mxCell id="BHV4HIjAjoOKH4ibJQ7y-218" value="C1_U" style="rounded=0;whiteSpace=wrap;html=1;align=left;" vertex="1" parent="2">
          <mxGeometry x="688.1299999999999" y="620" width="121.87" height="20" as="geometry" />
        </mxCell>
        <mxCell id="BHV4HIjAjoOKH4ibJQ7y-219" value="C2" style="rounded=0;whiteSpace=wrap;html=1;align=left;" vertex="1" parent="2">
          <mxGeometry x="688.1299999999999" y="640" width="121.87" height="20" as="geometry" />
        </mxCell>
        <mxCell id="BHV4HIjAjoOKH4ibJQ7y-220" value="C2_U" style="rounded=0;whiteSpace=wrap;html=1;align=left;" vertex="1" parent="2">
          <mxGeometry x="688.1299999999999" y="660" width="121.87" height="20" as="geometry" />
        </mxCell>
        <mxCell id="BHV4HIjAjoOKH4ibJQ7y-221" value="BK1" style="rounded=0;whiteSpace=wrap;html=1;align=left;" vertex="1" parent="2">
          <mxGeometry x="699.0699999999999" y="730" width="100" height="20" as="geometry" />
        </mxCell>
        <mxCell id="BHV4HIjAjoOKH4ibJQ7y-222" value="BK1_U" style="rounded=0;whiteSpace=wrap;html=1;align=left;" vertex="1" parent="2">
          <mxGeometry x="699.0699999999999" y="750" width="100" height="20" as="geometry" />
        </mxCell>
        <mxCell id="BHV4HIjAjoOKH4ibJQ7y-223" value="BK2_U" style="rounded=0;whiteSpace=wrap;html=1;align=left;" vertex="1" parent="2">
          <mxGeometry x="699.0699999999999" y="785" width="100" height="20" as="geometry" />
        </mxCell>
        <mxCell id="BHV4HIjAjoOKH4ibJQ7y-224" value="" style="ellipse;whiteSpace=wrap;html=1;strokeColor=none;fillColor=#7f00ff;" vertex="1" parent="2">
          <mxGeometry x="838.75" y="658" width="10" height="11" as="geometry" />
        </mxCell>
        <mxCell id="BHV4HIjAjoOKH4ibJQ7y-225" value="" style="shape=step;perimeter=stepPerimeter;whiteSpace=wrap;html=1;fixedSize=1;size=2.9999999999999716;fillColor=#7f00ff;strokeColor=none;shadow=0;strokeWidth=2;opacity=100;spacingLeft=0.6;spacingRight=0;" vertex="1" parent="2">
          <mxGeometry x="745.1799999999998" y="624.5" width="10" height="10" as="geometry" />
        </mxCell>
        <mxCell id="BHV4HIjAjoOKH4ibJQ7y-226" value="" style="shape=step;perimeter=stepPerimeter;whiteSpace=wrap;html=1;fixedSize=1;size=2.9999999999999716;fillColor=#7f00ff;strokeColor=none;shadow=0;strokeWidth=2;opacity=100;spacingLeft=0.6;spacingRight=0;" vertex="1" parent="2">
          <mxGeometry x="745.1799999999998" y="664.5" width="10" height="10" as="geometry" />
        </mxCell>
        <mxCell id="BHV4HIjAjoOKH4ibJQ7y-227" value="" style="shape=step;perimeter=stepPerimeter;whiteSpace=wrap;html=1;fixedSize=1;size=2.9999999999999716;fillColor=#7f00ff;strokeColor=none;shadow=0;strokeWidth=2;opacity=100;spacingLeft=0.6;spacingRight=0;" vertex="1" parent="2">
          <mxGeometry x="744.25" y="755.5" width="10" height="10" as="geometry" />
        </mxCell>
        <mxCell id="BHV4HIjAjoOKH4ibJQ7y-228" value="" style="shape=step;perimeter=stepPerimeter;whiteSpace=wrap;html=1;fixedSize=1;size=2.9999999999999716;fillColor=#7f00ff;strokeColor=none;shadow=0;strokeWidth=2;opacity=100;spacingLeft=0.6;spacingRight=0;" vertex="1" parent="2">
          <mxGeometry x="744.25" y="789.5" width="10" height="10" as="geometry" />
        </mxCell>
        <mxCell id="BHV4HIjAjoOKH4ibJQ7y-229" value="" style="ellipse;whiteSpace=wrap;html=1;strokeColor=none;fillColor=#7f00ff;" vertex="1" parent="2">
          <mxGeometry x="838.75" y="778.5" width="10" height="11" as="geometry" />
        </mxCell>
        <mxCell id="BHV4HIjAjoOKH4ibJQ7y-230" value="" style="ellipse;whiteSpace=wrap;html=1;strokeColor=default;fillColor=none;strokeWidth=2;" vertex="1" parent="2">
          <mxGeometry x="820.6199999999999" y="777.5" width="10" height="11" as="geometry" />
        </mxCell>
        <mxCell id="BHV4HIjAjoOKH4ibJQ7y-231" value="" style="shape=step;perimeter=stepPerimeter;whiteSpace=wrap;html=1;fixedSize=1;size=2.9999999999999716;fillColor=default;strokeColor=default;shadow=0;strokeWidth=2;opacity=100;spacingLeft=0.6;spacingRight=0;" vertex="1" parent="2">
          <mxGeometry x="789.0699999999999" y="605" width="10" height="10" as="geometry" />
        </mxCell>
        <mxCell id="BHV4HIjAjoOKH4ibJQ7y-232" value="" style="shape=step;perimeter=stepPerimeter;whiteSpace=wrap;html=1;fixedSize=1;size=2.9999999999999716;fillColor=default;strokeColor=default;shadow=0;strokeWidth=2;opacity=100;spacingLeft=0.6;spacingRight=0;" vertex="1" parent="2">
          <mxGeometry x="789.0699999999999" y="645" width="10" height="10" as="geometry" />
        </mxCell>
        <mxCell id="BHV4HIjAjoOKH4ibJQ7y-233" value="" style="shape=step;perimeter=stepPerimeter;whiteSpace=wrap;html=1;fixedSize=1;size=2.9999999999999716;fillColor=default;strokeColor=default;shadow=0;strokeWidth=2;opacity=100;spacingLeft=0.6;spacingRight=0;" vertex="1" parent="2">
          <mxGeometry x="780.94" y="735" width="10" height="10" as="geometry" />
        </mxCell>
        <mxCell id="BHV4HIjAjoOKH4ibJQ7y-234" value="" style="ellipse;whiteSpace=wrap;html=1;strokeColor=default;fillColor=none;strokeWidth=2;" vertex="1" parent="2">
          <mxGeometry x="821.8699999999999" y="657.5" width="10" height="11" as="geometry" />
        </mxCell>
        <mxCell id="BHV4HIjAjoOKH4ibJQ7y-235" value="/ Relation incomplete" style="shape=callout;whiteSpace=wrap;html=1;perimeter=calloutPerimeter;direction=south;position2=1;fillColor=#FFFF66;size=30;position=0.25;" vertex="1" parent="2">
          <mxGeometry x="776.4099999999999" y="700" width="110" height="60" as="geometry" />
        </mxCell>
        <mxCell id="BHV4HIjAjoOKH4ibJQ7y-236" style="shape=filledEdge;strokeWidth=2;strokeColor=#000000;fillColor=none;startArrow=none;startFill=0;startSize=6;endArrow=none;endFill=0;endSize=6;rounded=1;gliffyId=17;edgeStyle=orthogonalEdgeStyle;" edge="1" parent="2">
          <mxGeometry width="1" height="23" relative="1" as="geometry">
            <Array as="points">
              <mxPoint x="1095.18" y="618.25" />
              <mxPoint x="1095.18" y="626.5833435058594" />
              <mxPoint x="1095.18" y="634.9166564941406" />
              <mxPoint x="1095.18" y="643.25" />
            </Array>
            <mxPoint x="1030.1800000000003" y="699.5" as="sourcePoint" />
            <mxPoint x="1030.1800000000003" y="714.5" as="targetPoint" />
          </mxGeometry>
        </mxCell>
        <mxCell id="BHV4HIjAjoOKH4ibJQ7y-237" value="&lt;div style=&quot;width: 93.0px;height:auto;word-break: break-word;&quot;&gt;&lt;div&gt;&lt;span style=&quot;font-family: Arial; font-size: 12px; text-decoration: none; line-height: 0;&quot;&gt;&lt;span style=&quot;text-decoration: none; line-height: 14px;&quot; class=&quot;&quot;&gt;A_SAT&lt;/span&gt;&lt;/span&gt;&lt;/div&gt;&lt;/div&gt;" style="shape=rect;rounded=1;arcSize=15;absoluteArcSize=1;shadow=0;strokeWidth=2;fillColor=#E6E6E6;strokeColor=#333333;opacity=100.0;html=1;nl2Br=0;verticalAlign=middle;align=right;spacingLeft=2.0;spacingRight=10;whiteSpace=wrap;gliffyId=15;" vertex="1" parent="2">
          <mxGeometry x="950" y="590" width="190" height="110" as="geometry" />
        </mxCell>
        <mxCell id="BHV4HIjAjoOKH4ibJQ7y-238" value="&lt;div style=&quot;width: 93.0px;height:auto;word-break: break-word;&quot;&gt;&lt;div&gt;&lt;span style=&quot;font-family: Arial; font-size: 12px; text-decoration: none; line-height: 0;&quot;&gt;&lt;span style=&quot;text-decoration: none; line-height: 14px;&quot;&gt;A_HUB&lt;/span&gt;&lt;/span&gt;&lt;/div&gt;&lt;/div&gt;" style="shape=ellipse;perimeter=ellipsePerimeter;shadow=0;strokeWidth=2;fillColor=#E6E6E6;strokeColor=#333333;opacity=100.0;html=1;nl2Br=0;verticalAlign=middle;align=right;spacingLeft=2.0;spacingRight=10;whiteSpace=wrap;gliffyId=12;" vertex="1" parent="2">
          <mxGeometry x="950" y="715" width="190" height="105" as="geometry" />
        </mxCell>
        <mxCell id="BHV4HIjAjoOKH4ibJQ7y-239" value="C1" style="rounded=0;whiteSpace=wrap;html=1;align=left;" vertex="1" parent="2">
          <mxGeometry x="958.1299999999999" y="600" width="121.87" height="20" as="geometry" />
        </mxCell>
        <mxCell id="BHV4HIjAjoOKH4ibJQ7y-240" value="C1_U" style="rounded=0;whiteSpace=wrap;html=1;align=left;" vertex="1" parent="2">
          <mxGeometry x="958.1299999999999" y="620" width="121.87" height="20" as="geometry" />
        </mxCell>
        <mxCell id="BHV4HIjAjoOKH4ibJQ7y-241" value="C2" style="rounded=0;whiteSpace=wrap;html=1;align=left;" vertex="1" parent="2">
          <mxGeometry x="958.1299999999999" y="640" width="121.87" height="20" as="geometry" />
        </mxCell>
        <mxCell id="BHV4HIjAjoOKH4ibJQ7y-242" value="C2_U" style="rounded=0;whiteSpace=wrap;html=1;align=left;" vertex="1" parent="2">
          <mxGeometry x="958.1299999999999" y="660" width="121.87" height="20" as="geometry" />
        </mxCell>
        <mxCell id="BHV4HIjAjoOKH4ibJQ7y-244" value="BK1_U" style="rounded=0;whiteSpace=wrap;html=1;align=left;" vertex="1" parent="2">
          <mxGeometry x="969.0699999999999" y="750" width="100" height="20" as="geometry" />
        </mxCell>
        <mxCell id="BHV4HIjAjoOKH4ibJQ7y-245" value="BK2_U" style="rounded=0;whiteSpace=wrap;html=1;align=left;" vertex="1" parent="2">
          <mxGeometry x="969.0699999999999" y="770" width="100" height="20" as="geometry" />
        </mxCell>
        <mxCell id="BHV4HIjAjoOKH4ibJQ7y-246" value="" style="ellipse;whiteSpace=wrap;html=1;strokeColor=none;fillColor=#7f00ff;" vertex="1" parent="2">
          <mxGeometry x="1108.75" y="658" width="10" height="11" as="geometry" />
        </mxCell>
        <mxCell id="BHV4HIjAjoOKH4ibJQ7y-247" value="" style="shape=step;perimeter=stepPerimeter;whiteSpace=wrap;html=1;fixedSize=1;size=2.9999999999999716;fillColor=#7f00ff;strokeColor=none;shadow=0;strokeWidth=2;opacity=100;spacingLeft=0.6;spacingRight=0;" vertex="1" parent="2">
          <mxGeometry x="1015.1799999999998" y="624.5" width="10" height="10" as="geometry" />
        </mxCell>
        <mxCell id="BHV4HIjAjoOKH4ibJQ7y-248" value="" style="shape=step;perimeter=stepPerimeter;whiteSpace=wrap;html=1;fixedSize=1;size=2.9999999999999716;fillColor=#7f00ff;strokeColor=none;shadow=0;strokeWidth=2;opacity=100;spacingLeft=0.6;spacingRight=0;" vertex="1" parent="2">
          <mxGeometry x="1015.1799999999998" y="664.5" width="10" height="10" as="geometry" />
        </mxCell>
        <mxCell id="BHV4HIjAjoOKH4ibJQ7y-249" value="" style="shape=step;perimeter=stepPerimeter;whiteSpace=wrap;html=1;fixedSize=1;size=2.9999999999999716;fillColor=#7f00ff;strokeColor=none;shadow=0;strokeWidth=2;opacity=100;spacingLeft=0.6;spacingRight=0;" vertex="1" parent="2">
          <mxGeometry x="1014.25" y="755.5" width="10" height="10" as="geometry" />
        </mxCell>
        <mxCell id="BHV4HIjAjoOKH4ibJQ7y-250" value="" style="shape=step;perimeter=stepPerimeter;whiteSpace=wrap;html=1;fixedSize=1;size=2.9999999999999716;fillColor=#7f00ff;strokeColor=none;shadow=0;strokeWidth=2;opacity=100;spacingLeft=0.6;spacingRight=0;" vertex="1" parent="2">
          <mxGeometry x="1014.25" y="774.5" width="10" height="10" as="geometry" />
        </mxCell>
        <mxCell id="BHV4HIjAjoOKH4ibJQ7y-251" value="" style="ellipse;whiteSpace=wrap;html=1;strokeColor=none;fillColor=#7f00ff;" vertex="1" parent="2">
          <mxGeometry x="1108.75" y="778.5" width="10" height="11" as="geometry" />
        </mxCell>
        <mxCell id="BHV4HIjAjoOKH4ibJQ7y-253" value="" style="shape=step;perimeter=stepPerimeter;whiteSpace=wrap;html=1;fixedSize=1;size=2.9999999999999716;fillColor=default;strokeColor=default;shadow=0;strokeWidth=2;opacity=100;spacingLeft=0.6;spacingRight=0;" vertex="1" parent="2">
          <mxGeometry x="1059.07" y="605" width="10" height="10" as="geometry" />
        </mxCell>
        <mxCell id="BHV4HIjAjoOKH4ibJQ7y-254" value="" style="shape=step;perimeter=stepPerimeter;whiteSpace=wrap;html=1;fixedSize=1;size=2.9999999999999716;fillColor=default;strokeColor=default;shadow=0;strokeWidth=2;opacity=100;spacingLeft=0.6;spacingRight=0;" vertex="1" parent="2">
          <mxGeometry x="1059.07" y="645" width="10" height="10" as="geometry" />
        </mxCell>
        <mxCell id="BHV4HIjAjoOKH4ibJQ7y-256" value="" style="ellipse;whiteSpace=wrap;html=1;strokeColor=default;fillColor=none;strokeWidth=2;" vertex="1" parent="2">
          <mxGeometry x="1091.87" y="657.5" width="10" height="11" as="geometry" />
        </mxCell>
        <mxCell id="BHV4HIjAjoOKH4ibJQ7y-257" value="Relation / not in hub" style="shape=callout;whiteSpace=wrap;html=1;perimeter=calloutPerimeter;direction=west;position2=0.43;fillColor=#FFFF66;size=30;position=0.43;base=20;" vertex="1" parent="2">
          <mxGeometry x="1060" y="670" width="70" height="80" as="geometry" />
        </mxCell>
        <mxCell id="BHV4HIjAjoOKH4ibJQ7y-258" value="&lt;div style=&#39;width: 93.0px;height:auto;word-break: break-word;&#39;&gt;&lt;div align=&quot;center&quot;&gt;&lt;span style=&quot;font-family: Arial; font-size: 12px; text-decoration: none; line-height: 0;&quot;&gt;&lt;span style=&quot;text-decoration: none; line-height: 14px;&quot; class=&quot;&quot;&gt;A_HUB&lt;/span&gt;&lt;/span&gt;&lt;/div&gt;&lt;/div&gt;" style="shape=ellipse;perimeter=ellipsePerimeter;shadow=0;strokeWidth=2;fillColor=#E6E6E6;strokeColor=#333333;opacity=100.0;html=1;nl2Br=0;verticalAlign=top;align=center;spacingLeft=8.0;spacingRight=6;whiteSpace=wrap;gliffyId=225;" vertex="1" parent="2">
          <mxGeometry x="80" y="960" width="74.07" height="50" as="geometry" />
        </mxCell>
        <mxCell id="BHV4HIjAjoOKH4ibJQ7y-259" value="&lt;div style=&#39;width: 93.0px;height:auto;word-break: break-word;&#39;&gt;&lt;div align=&quot;center&quot;&gt;&lt;span style=&quot;font-family: Arial; font-size: 12px; line-height: 0;&quot;&gt;&lt;span style=&quot;line-height: 14px;&quot; class=&quot;&quot;&gt;B_HUB&lt;/span&gt;&lt;/span&gt;&lt;/div&gt;&lt;/div&gt;" style="shape=ellipse;perimeter=ellipsePerimeter;shadow=0;strokeWidth=2;fillColor=#E6E6E6;strokeColor=#333333;opacity=100.0;html=1;nl2Br=0;verticalAlign=top;align=center;spacingLeft=8.0;spacingRight=6;whiteSpace=wrap;gliffyId=223;" vertex="1" parent="2">
          <mxGeometry x="304.07" y="960" width="65.93" height="50" as="geometry" />
        </mxCell>
        <mxCell id="BHV4HIjAjoOKH4ibJQ7y-260" style="edgeStyle=orthogonalEdgeStyle;shape=filledEdge;rounded=1;orthogonalLoop=1;jettySize=auto;html=1;labelBackgroundColor=default;strokeColor=#000000;strokeWidth=2;fontFamily=Helvetica;fontSize=11;fontColor=default;startArrow=none;startFill=0;endArrow=none;endFill=0;startSize=6;endSize=6;fillColor=none;" edge="1" parent="2" source="BHV4HIjAjoOKH4ibJQ7y-262" target="BHV4HIjAjoOKH4ibJQ7y-259">
          <mxGeometry relative="1" as="geometry" />
        </mxCell>
        <mxCell id="BHV4HIjAjoOKH4ibJQ7y-261" style="edgeStyle=orthogonalEdgeStyle;shape=filledEdge;rounded=1;orthogonalLoop=1;jettySize=auto;html=1;labelBackgroundColor=default;strokeColor=#000000;strokeWidth=2;fontFamily=Helvetica;fontSize=11;fontColor=default;startArrow=none;startFill=0;endArrow=none;endFill=0;startSize=6;endSize=6;fillColor=none;" edge="1" parent="2" source="BHV4HIjAjoOKH4ibJQ7y-262" target="BHV4HIjAjoOKH4ibJQ7y-258">
          <mxGeometry relative="1" as="geometry" />
        </mxCell>
        <mxCell id="BHV4HIjAjoOKH4ibJQ7y-262" value="&lt;div style=&#39;width: 83.0px;height:auto;word-break: break-word;&#39;&gt;&lt;div align=&quot;center&quot;&gt;&lt;span style=&quot;font-family: Arial; font-size: 12px; text-decoration: none; line-height: 0;&quot;&gt;&lt;span style=&quot;text-decoration: none; line-height: 14px;&quot; class=&quot;&quot;&gt;A_B_LNK&lt;/span&gt;&lt;/span&gt;&lt;/div&gt;&lt;/div&gt;" style="shape=hexagon;perimeter=hexagonPerimeter2;shadow=0;strokeWidth=2;fillColor=#E6E6E6;strokeColor=#333333;opacity=100.0;html=1;nl2Br=0;verticalAlign=top;align=center;spacingLeft=2.0;spacingRight=0;whiteSpace=wrap;gliffyId=217;" vertex="1" parent="2">
          <mxGeometry x="174.07000000000005" y="961" width="110" height="48" as="geometry" />
        </mxCell>
        <mxCell id="BHV4HIjAjoOKH4ibJQ7y-263" style="edgeStyle=orthogonalEdgeStyle;shape=filledEdge;rounded=1;orthogonalLoop=1;jettySize=auto;html=1;labelBackgroundColor=default;strokeColor=#000000;strokeWidth=2;fontFamily=Helvetica;fontSize=11;fontColor=default;startArrow=none;startFill=0;endArrow=none;endFill=0;startSize=6;endSize=6;fillColor=none;" edge="1" parent="2" source="BHV4HIjAjoOKH4ibJQ7y-264" target="BHV4HIjAjoOKH4ibJQ7y-262">
          <mxGeometry relative="1" as="geometry">
            <Array as="points">
              <mxPoint x="173.25" y="940" />
              <mxPoint x="229.25" y="940" />
            </Array>
          </mxGeometry>
        </mxCell>
        <mxCell id="BHV4HIjAjoOKH4ibJQ7y-264" value="&lt;div style=&quot;width: 93.0px;height:auto;word-break: break-word;&quot;&gt;&lt;div&gt;&lt;span style=&quot;font-family: Arial; font-size: 12px; text-decoration: none; line-height: 0;&quot;&gt;&lt;span style=&quot;text-decoration: none; line-height: 14px;&quot; class=&quot;&quot;&gt;A_B_ESAT_T&lt;/span&gt;&lt;/span&gt;&lt;/div&gt;&lt;/div&gt;" style="shape=rect;rounded=1;arcSize=15;absoluteArcSize=1;shadow=0;strokeWidth=2;fillColor=#E6E6E6;strokeColor=#333333;opacity=100.0;html=1;nl2Br=0;verticalAlign=top;align=center;spacingLeft=2.0;spacingRight=10;whiteSpace=wrap;gliffyId=15;" vertex="1" parent="2">
          <mxGeometry x="130" y="880" width="85.93" height="50" as="geometry" />
        </mxCell>
        <mxCell id="BHV4HIjAjoOKH4ibJQ7y-265" value="" style="group" vertex="1" connectable="0" parent="2">
          <mxGeometry x="110" y="990" width="10" height="11.25" as="geometry" />
        </mxCell>
        <mxCell id="BHV4HIjAjoOKH4ibJQ7y-266" value="" style="ellipse;whiteSpace=wrap;html=1;strokeColor=none;fillColor=#000000;" vertex="1" parent="BHV4HIjAjoOKH4ibJQ7y-265">
          <mxGeometry y="0.25" width="10" height="11" as="geometry" />
        </mxCell>
        <mxCell id="BHV4HIjAjoOKH4ibJQ7y-267" value="" style="verticalLabelPosition=bottom;verticalAlign=top;html=1;shape=mxgraph.basic.star;fillColor=#FFFFFF;strokeColor=none;" vertex="1" parent="BHV4HIjAjoOKH4ibJQ7y-265">
          <mxGeometry width="10" height="10" as="geometry" />
        </mxCell>
        <mxCell id="BHV4HIjAjoOKH4ibJQ7y-268" value="" style="ellipse;whiteSpace=wrap;html=1;strokeColor=none;fillColor=#CC0000;" vertex="1" parent="2">
          <mxGeometry x="329.99999999999983" y="990" width="10" height="11" as="geometry" />
        </mxCell>
        <mxCell id="BHV4HIjAjoOKH4ibJQ7y-269" value="" style="ellipse;whiteSpace=wrap;html=1;strokeColor=#CC0000;fillColor=default;strokeWidth=2;" vertex="1" parent="2">
          <mxGeometry x="209.9999999999999" y="989.5" width="10" height="11" as="geometry" />
        </mxCell>
        <mxCell id="BHV4HIjAjoOKH4ibJQ7y-271" value="" style="triangle;whiteSpace=wrap;html=1;rotation=90;fillColor=#CC0000;strokeColor=none;shadow=0;strokeWidth=2;opacity=100;spacingLeft=0.6;spacingRight=0;" vertex="1" parent="2">
          <mxGeometry x="167.9699999999999" y="910.63" width="10" height="10" as="geometry" />
        </mxCell>
        <mxCell id="BHV4HIjAjoOKH4ibJQ7y-272" style="edgeStyle=orthogonalEdgeStyle;shape=filledEdge;rounded=1;orthogonalLoop=1;jettySize=auto;html=1;labelBackgroundColor=default;strokeColor=#000000;strokeWidth=2;fontFamily=Helvetica;fontSize=11;fontColor=default;startArrow=none;startFill=0;endArrow=blockThin;endFill=1;startSize=6;endSize=6;fillColor=none;" edge="1" parent="2" source="BHV4HIjAjoOKH4ibJQ7y-273" target="BHV4HIjAjoOKH4ibJQ7y-262">
          <mxGeometry relative="1" as="geometry">
            <Array as="points">
              <mxPoint x="281.25" y="940" />
              <mxPoint x="229.25" y="940" />
            </Array>
          </mxGeometry>
        </mxCell>
        <mxCell id="BHV4HIjAjoOKH4ibJQ7y-273" value="&lt;div style=&quot;width: 93.0px;height:auto;word-break: break-word;&quot;&gt;&lt;div&gt;&lt;span style=&quot;font-family: Arial; font-size: 12px; text-decoration: none; line-height: 0;&quot;&gt;&lt;span style=&quot;text-decoration: none; line-height: 14px;&quot; class=&quot;&quot;&gt;A_B_ESAT_U&lt;/span&gt;&lt;/span&gt;&lt;/div&gt;&lt;/div&gt;" style="shape=rect;rounded=1;arcSize=15;absoluteArcSize=1;shadow=0;strokeWidth=2;fillColor=#E6E6E6;strokeColor=#333333;opacity=100.0;html=1;nl2Br=0;verticalAlign=top;align=center;spacingLeft=2.0;spacingRight=10;whiteSpace=wrap;gliffyId=15;" vertex="1" parent="2">
          <mxGeometry x="238.70000000000005" y="880" width="85.93" height="50" as="geometry" />
        </mxCell>
        <mxCell id="BHV4HIjAjoOKH4ibJQ7y-274" value="" style="triangle;whiteSpace=wrap;html=1;rotation=90;fillColor=#7F00FF;strokeColor=none;shadow=0;strokeWidth=2;opacity=100;spacingLeft=0.6;spacingRight=0;" vertex="1" parent="2">
          <mxGeometry x="276.6700000000001" y="910.63" width="10" height="10" as="geometry" />
        </mxCell>
        <mxCell id="BHV4HIjAjoOKH4ibJQ7y-275" value="" style="ellipse;whiteSpace=wrap;html=1;strokeColor=#7F00FF;fillColor=default;strokeWidth=2;" vertex="1" parent="2">
          <mxGeometry x="235.7499999999999" y="989.5" width="10" height="11" as="geometry" />
        </mxCell>
        <mxCell id="BHV4HIjAjoOKH4ibJQ7y-276" value="Relation U not in hub" style="shape=callout;whiteSpace=wrap;html=1;perimeter=calloutPerimeter;direction=west;position2=0.43;fillColor=#FFFF66;size=20;position=0.43;base=20;" vertex="1" parent="2">
          <mxGeometry x="200" y="1000" width="70" height="50" as="geometry" />
        </mxCell>
        <mxCell id="BHV4HIjAjoOKH4ibJQ7y-277" value="&lt;div style=&#39;width: 93.0px;height:auto;word-break: break-word;&#39;&gt;&lt;div align=&quot;center&quot;&gt;&lt;span style=&quot;font-family: Arial; font-size: 12px; text-decoration: none; line-height: 0;&quot;&gt;&lt;span style=&quot;text-decoration: none; line-height: 14px;&quot; class=&quot;&quot;&gt;A_HUB&lt;/span&gt;&lt;/span&gt;&lt;/div&gt;&lt;/div&gt;" style="shape=ellipse;perimeter=ellipsePerimeter;shadow=0;strokeWidth=2;fillColor=#E6E6E6;strokeColor=#333333;opacity=100.0;html=1;nl2Br=0;verticalAlign=top;align=center;spacingLeft=8.0;spacingRight=6;whiteSpace=wrap;gliffyId=225;" vertex="1" parent="2">
          <mxGeometry x="450" y="970" width="70" height="40" as="geometry" />
        </mxCell>
        <mxCell id="BHV4HIjAjoOKH4ibJQ7y-278" value="&lt;div style=&#39;width: 93.0px;height:auto;word-break: break-word;&#39;&gt;&lt;div align=&quot;center&quot;&gt;&lt;span style=&quot;font-family: Arial; font-size: 12px; line-height: 0;&quot;&gt;&lt;span style=&quot;line-height: 14px;&quot; class=&quot;&quot;&gt;B_HUB&lt;/span&gt;&lt;/span&gt;&lt;/div&gt;&lt;/div&gt;" style="shape=ellipse;perimeter=ellipsePerimeter;shadow=0;strokeWidth=2;fillColor=#E6E6E6;strokeColor=#333333;opacity=100.0;html=1;nl2Br=0;verticalAlign=top;align=center;spacingLeft=8.0;spacingRight=6;whiteSpace=wrap;gliffyId=223;" vertex="1" parent="2">
          <mxGeometry x="670" y="970" width="70" height="40" as="geometry" />
        </mxCell>
        <mxCell id="BHV4HIjAjoOKH4ibJQ7y-279" style="shape=filledEdge;rounded=1;orthogonalLoop=1;jettySize=auto;html=1;labelBackgroundColor=default;strokeColor=#000000;strokeWidth=2;fontFamily=Helvetica;fontSize=11;fontColor=default;startArrow=none;startFill=0;endArrow=none;endFill=0;startSize=6;endSize=6;fillColor=none;" edge="1" parent="2" source="BHV4HIjAjoOKH4ibJQ7y-281" target="BHV4HIjAjoOKH4ibJQ7y-278">
          <mxGeometry relative="1" as="geometry">
            <mxPoint x="705" y="1000" as="targetPoint" />
          </mxGeometry>
        </mxCell>
        <mxCell id="BHV4HIjAjoOKH4ibJQ7y-280" style="edgeStyle=orthogonalEdgeStyle;shape=filledEdge;rounded=1;orthogonalLoop=1;jettySize=auto;html=1;labelBackgroundColor=default;strokeColor=#000000;strokeWidth=2;fontFamily=Helvetica;fontSize=11;fontColor=default;startArrow=none;startFill=0;endArrow=none;endFill=0;startSize=6;endSize=6;fillColor=none;" edge="1" parent="2" source="BHV4HIjAjoOKH4ibJQ7y-281" target="BHV4HIjAjoOKH4ibJQ7y-277">
          <mxGeometry relative="1" as="geometry" />
        </mxCell>
        <mxCell id="BHV4HIjAjoOKH4ibJQ7y-281" value="&lt;div style=&#39;width: 83.0px;height:auto;word-break: break-word;&#39;&gt;&lt;div align=&quot;center&quot;&gt;&lt;span style=&quot;font-family: Arial; font-size: 12px; text-decoration: none; line-height: 0;&quot;&gt;&lt;span style=&quot;text-decoration: none; line-height: 14px;&quot; class=&quot;&quot;&gt;A_B_LNK&lt;/span&gt;&lt;/span&gt;&lt;/div&gt;&lt;/div&gt;" style="shape=hexagon;perimeter=hexagonPerimeter2;shadow=0;strokeWidth=2;fillColor=#E6E6E6;strokeColor=#333333;opacity=100.0;html=1;nl2Br=0;verticalAlign=top;align=center;spacingLeft=2.0;spacingRight=0;whiteSpace=wrap;gliffyId=217;" vertex="1" parent="2">
          <mxGeometry x="541.87" y="970" width="110" height="39" as="geometry" />
        </mxCell>
        <mxCell id="BHV4HIjAjoOKH4ibJQ7y-282" style="edgeStyle=orthogonalEdgeStyle;shape=filledEdge;rounded=1;orthogonalLoop=1;jettySize=auto;html=1;labelBackgroundColor=default;strokeColor=#000000;strokeWidth=2;fontFamily=Helvetica;fontSize=11;fontColor=default;startArrow=none;startFill=0;endArrow=blockThin;endFill=1;startSize=6;endSize=6;fillColor=none;" edge="1" parent="2" source="BHV4HIjAjoOKH4ibJQ7y-283" target="BHV4HIjAjoOKH4ibJQ7y-281">
          <mxGeometry relative="1" as="geometry" />
        </mxCell>
        <mxCell id="BHV4HIjAjoOKH4ibJQ7y-283" value="&lt;div style=&quot;width: 93.0px;height:auto;word-break: break-word;&quot;&gt;&lt;div&gt;&lt;span style=&quot;font-family: Arial; font-size: 12px; text-decoration: none; line-height: 0;&quot;&gt;&lt;span style=&quot;text-decoration: none; line-height: 14px;&quot; class=&quot;&quot;&gt;A_B_SAT&lt;/span&gt;&lt;/span&gt;&lt;/div&gt;&lt;/div&gt;" style="shape=rect;rounded=1;arcSize=15;absoluteArcSize=1;shadow=0;strokeWidth=2;fillColor=#E6E6E6;strokeColor=#333333;opacity=100.0;html=1;nl2Br=0;verticalAlign=top;align=right;spacingLeft=2.0;spacingRight=10;whiteSpace=wrap;gliffyId=15;" vertex="1" parent="2">
          <mxGeometry x="471.87" y="870" width="250" height="80" as="geometry" />
        </mxCell>
        <mxCell id="BHV4HIjAjoOKH4ibJQ7y-284" value="" style="group" vertex="1" connectable="0" parent="2">
          <mxGeometry x="480" y="990" width="10" height="11.25" as="geometry" />
        </mxCell>
        <mxCell id="BHV4HIjAjoOKH4ibJQ7y-285" value="" style="ellipse;whiteSpace=wrap;html=1;strokeColor=none;fillColor=#000000;" vertex="1" parent="BHV4HIjAjoOKH4ibJQ7y-284">
          <mxGeometry y="0.25" width="10" height="11" as="geometry" />
        </mxCell>
        <mxCell id="BHV4HIjAjoOKH4ibJQ7y-286" value="" style="verticalLabelPosition=bottom;verticalAlign=top;html=1;shape=mxgraph.basic.star;fillColor=#FFFFFF;strokeColor=none;" vertex="1" parent="BHV4HIjAjoOKH4ibJQ7y-284">
          <mxGeometry width="10" height="10" as="geometry" />
        </mxCell>
        <mxCell id="BHV4HIjAjoOKH4ibJQ7y-287" value="C1" style="rounded=0;whiteSpace=wrap;html=1;align=left;" vertex="1" parent="2">
          <mxGeometry x="480.62" y="880" width="121.87" height="20" as="geometry" />
        </mxCell>
        <mxCell id="BHV4HIjAjoOKH4ibJQ7y-288" value="C2_T" style="rounded=0;whiteSpace=wrap;html=1;align=left;" vertex="1" parent="2">
          <mxGeometry x="480" y="904.8699999999999" width="121.87" height="20" as="geometry" />
        </mxCell>
        <mxCell id="BHV4HIjAjoOKH4ibJQ7y-289" value="" style="ellipse;whiteSpace=wrap;html=1;strokeColor=none;fillColor=#CC0000;" vertex="1" parent="2">
          <mxGeometry x="667.9199999999998" y="898.3699999999999" width="10" height="11" as="geometry" />
        </mxCell>
        <mxCell id="BHV4HIjAjoOKH4ibJQ7y-290" value="" style="ellipse;whiteSpace=wrap;html=1;strokeColor=none;fillColor=#7f00ff;" vertex="1" parent="2">
          <mxGeometry x="686.5899999999999" y="898.3699999999999" width="10" height="11" as="geometry" />
        </mxCell>
        <mxCell id="BHV4HIjAjoOKH4ibJQ7y-291" value="" style="ellipse;whiteSpace=wrap;html=1;strokeColor=#CC0000;fillColor=default;strokeWidth=2;" vertex="1" parent="2">
          <mxGeometry x="578.9999999999999" y="991.9999999999999" width="10" height="11" as="geometry" />
        </mxCell>
        <mxCell id="BHV4HIjAjoOKH4ibJQ7y-292" value="" style="ellipse;whiteSpace=wrap;html=1;strokeColor=#7F00FF;fillColor=default;strokeWidth=2;" vertex="1" parent="2">
          <mxGeometry x="604.7499999999999" y="991.9999999999999" width="10" height="11" as="geometry" />
        </mxCell>
        <mxCell id="BHV4HIjAjoOKH4ibJQ7y-293" value="" style="ellipse;whiteSpace=wrap;html=1;strokeColor=none;fillColor=#CC0000;" vertex="1" parent="2">
          <mxGeometry x="700" y="992.9999999999999" width="10" height="11" as="geometry" />
        </mxCell>
        <mxCell id="BHV4HIjAjoOKH4ibJQ7y-295" value="" style="shape=step;perimeter=stepPerimeter;whiteSpace=wrap;html=1;fixedSize=1;size=2.9999999999999716;fillColor=default;strokeColor=#7F00FF;shadow=0;strokeWidth=2;opacity=100;spacingLeft=0.6;spacingRight=0;" vertex="1" parent="2">
          <mxGeometry x="572.26" y="885" width="10" height="10" as="geometry" />
        </mxCell>
        <mxCell id="BHV4HIjAjoOKH4ibJQ7y-296" value="" style="shape=step;perimeter=stepPerimeter;whiteSpace=wrap;html=1;fixedSize=1;size=2.9999999999999716;fillColor=default;strokeColor=#CC0000;shadow=0;strokeWidth=2;opacity=100;spacingLeft=0.6;spacingRight=0;" vertex="1" parent="2">
          <mxGeometry x="583.1899999999999" y="885" width="10" height="10" as="geometry" />
        </mxCell>
        <mxCell id="BHV4HIjAjoOKH4ibJQ7y-297" value="C2_U" style="rounded=0;whiteSpace=wrap;html=1;align=left;" vertex="1" parent="2">
          <mxGeometry x="479.21000000000004" y="924.8699999999999" width="121.87" height="20" as="geometry" />
        </mxCell>
        <mxCell id="BHV4HIjAjoOKH4ibJQ7y-298" value="" style="shape=step;perimeter=stepPerimeter;whiteSpace=wrap;html=1;fixedSize=1;size=2.9999999999999716;fillColor=#cc0000;strokeColor=none;shadow=0;strokeWidth=2;opacity=100;spacingLeft=0.6;spacingRight=0;" vertex="1" parent="2">
          <mxGeometry x="525.15" y="910" width="10" height="10" as="geometry" />
        </mxCell>
        <mxCell id="BHV4HIjAjoOKH4ibJQ7y-299" value="" style="shape=step;perimeter=stepPerimeter;whiteSpace=wrap;html=1;fixedSize=1;size=2.9999999999999716;fillColor=#7f00ff;strokeColor=none;shadow=0;strokeWidth=2;opacity=100;spacingLeft=0.6;spacingRight=0;" vertex="1" parent="2">
          <mxGeometry x="525.15" y="930" width="10" height="10" as="geometry" />
        </mxCell>
        <mxCell id="BHV4HIjAjoOKH4ibJQ7y-301" value="Relation U not in hub" style="shape=callout;whiteSpace=wrap;html=1;perimeter=calloutPerimeter;direction=west;position2=0.43;fillColor=#FFFF66;size=20;position=0.43;base=20;" vertex="1" parent="2">
          <mxGeometry x="570" y="1000" width="70" height="50" as="geometry" />
        </mxCell>
        <mxCell id="BHV4HIjAjoOKH4ibJQ7y-302" value="&lt;div style=&#39;width: 93.0px;height:auto;word-break: break-word;&#39;&gt;&lt;div align=&quot;center&quot;&gt;&lt;span style=&quot;font-family: Arial; font-size: 12px; text-decoration: none; line-height: 0;&quot;&gt;&lt;span style=&quot;text-decoration: none; line-height: 14px;&quot; class=&quot;&quot;&gt;A_HUB&lt;/span&gt;&lt;/span&gt;&lt;/div&gt;&lt;/div&gt;" style="shape=ellipse;perimeter=ellipsePerimeter;shadow=0;strokeWidth=2;fillColor=#E6E6E6;strokeColor=#333333;opacity=100.0;html=1;nl2Br=0;verticalAlign=top;align=center;spacingLeft=8.0;spacingRight=6;whiteSpace=wrap;gliffyId=225;" vertex="1" parent="2">
          <mxGeometry x="830" y="930" width="74.07" height="50" as="geometry" />
        </mxCell>
        <mxCell id="BHV4HIjAjoOKH4ibJQ7y-303" value="&lt;div style=&#39;width: 93.0px;height:auto;word-break: break-word;&#39;&gt;&lt;div align=&quot;center&quot;&gt;&lt;span style=&quot;font-family: Arial; font-size: 12px; line-height: 0;&quot;&gt;&lt;span style=&quot;line-height: 14px;&quot; class=&quot;&quot;&gt;B_HUB&lt;/span&gt;&lt;/span&gt;&lt;/div&gt;&lt;/div&gt;" style="shape=ellipse;perimeter=ellipsePerimeter;shadow=0;strokeWidth=2;fillColor=#E6E6E6;strokeColor=#333333;opacity=100.0;html=1;nl2Br=0;verticalAlign=top;align=center;spacingLeft=8.0;spacingRight=6;whiteSpace=wrap;gliffyId=223;" vertex="1" parent="2">
          <mxGeometry x="1040" y="930" width="80" height="50" as="geometry" />
        </mxCell>
        <mxCell id="BHV4HIjAjoOKH4ibJQ7y-304" style="shape=filledEdge;rounded=1;orthogonalLoop=1;jettySize=auto;html=1;labelBackgroundColor=default;strokeColor=#000000;strokeWidth=2;fontFamily=Helvetica;fontSize=11;fontColor=default;startArrow=none;startFill=0;endArrow=none;endFill=0;startSize=6;endSize=6;fillColor=none;" edge="1" parent="2" source="BHV4HIjAjoOKH4ibJQ7y-306" target="BHV4HIjAjoOKH4ibJQ7y-303">
          <mxGeometry relative="1" as="geometry" />
        </mxCell>
        <mxCell id="BHV4HIjAjoOKH4ibJQ7y-305" style="shape=filledEdge;rounded=1;orthogonalLoop=1;jettySize=auto;html=1;labelBackgroundColor=default;strokeColor=#000000;strokeWidth=2;fontFamily=Helvetica;fontSize=11;fontColor=default;startArrow=none;startFill=0;endArrow=none;endFill=0;startSize=6;endSize=6;fillColor=none;" edge="1" parent="2" source="BHV4HIjAjoOKH4ibJQ7y-306" target="BHV4HIjAjoOKH4ibJQ7y-302">
          <mxGeometry relative="1" as="geometry" />
        </mxCell>
        <mxCell id="BHV4HIjAjoOKH4ibJQ7y-306" value="&lt;div style=&#39;width: 83.0px;height:auto;word-break: break-word;&#39;&gt;&lt;div align=&quot;center&quot;&gt;&lt;span style=&quot;font-family: Arial; font-size: 12px; text-decoration: none; line-height: 0;&quot;&gt;&lt;span style=&quot;text-decoration: none; line-height: 14px;&quot; class=&quot;&quot;&gt;A_B_LNK&lt;/span&gt;&lt;/span&gt;&lt;/div&gt;&lt;/div&gt;" style="shape=hexagon;perimeter=hexagonPerimeter2;shadow=0;strokeWidth=2;fillColor=#E6E6E6;strokeColor=#333333;opacity=100.0;html=1;nl2Br=0;verticalAlign=top;align=center;spacingLeft=2.0;spacingRight=0;whiteSpace=wrap;gliffyId=217;" vertex="1" parent="2">
          <mxGeometry x="920" y="931" width="110" height="48" as="geometry" />
        </mxCell>
        <mxCell id="BHV4HIjAjoOKH4ibJQ7y-307" value="" style="ellipse;whiteSpace=wrap;html=1;strokeColor=none;fillColor=#00C74C;" vertex="1" parent="2">
          <mxGeometry x="1064.86" y="960" width="10" height="11" as="geometry" />
        </mxCell>
        <mxCell id="BHV4HIjAjoOKH4ibJQ7y-309" value="" style="ellipse;whiteSpace=wrap;html=1;strokeColor=none;fillColor=#7f00ff;" vertex="1" parent="2">
          <mxGeometry x="1083.53" y="960" width="10" height="11" as="geometry" />
        </mxCell>
        <mxCell id="BHV4HIjAjoOKH4ibJQ7y-310" value="" style="ellipse;whiteSpace=wrap;html=1;strokeColor=none;fillColor=#CC0000;" vertex="1" parent="2">
          <mxGeometry x="859.9999999999999" y="960" width="10" height="11" as="geometry" />
        </mxCell>
        <mxCell id="BHV4HIjAjoOKH4ibJQ7y-311" value="No relation overlap in parent hubs" style="shape=callout;whiteSpace=wrap;html=1;perimeter=calloutPerimeter;direction=west;position2=0.43;fillColor=#FFFF66;size=20;position=0.43;base=20;" vertex="1" parent="2">
          <mxGeometry x="940" y="970" width="80" height="70" as="geometry" />
        </mxCell>
        <mxCell id="BHV4HIjAjoOKH4ibJQ7y-312" value="&lt;div style=&#39;width: 93.0px;height:auto;word-break: break-word;&#39;&gt;&lt;div align=&quot;center&quot;&gt;&lt;span style=&quot;font-family: Arial; font-size: 12px; text-decoration: none; line-height: 0;&quot;&gt;&lt;span style=&quot;text-decoration: none; line-height: 14px;&quot; class=&quot;&quot;&gt;A_HUB&lt;/span&gt;&lt;/span&gt;&lt;/div&gt;&lt;/div&gt;" style="shape=ellipse;perimeter=ellipsePerimeter;shadow=0;strokeWidth=2;fillColor=#E6E6E6;strokeColor=#333333;opacity=100.0;html=1;nl2Br=0;verticalAlign=top;align=center;spacingLeft=8.0;spacingRight=6;whiteSpace=wrap;gliffyId=225;" vertex="1" parent="2">
          <mxGeometry x="80" y="1150" width="74.07" height="50" as="geometry" />
        </mxCell>
        <mxCell id="BHV4HIjAjoOKH4ibJQ7y-313" value="&lt;div style=&#39;width: 93.0px;height:auto;word-break: break-word;&#39;&gt;&lt;div align=&quot;center&quot;&gt;&lt;span style=&quot;font-family: Arial; font-size: 12px; line-height: 0;&quot;&gt;&lt;span style=&quot;line-height: 14px;&quot; class=&quot;&quot;&gt;B_HUB&lt;/span&gt;&lt;/span&gt;&lt;/div&gt;&lt;/div&gt;" style="shape=ellipse;perimeter=ellipsePerimeter;shadow=0;strokeWidth=2;fillColor=#E6E6E6;strokeColor=#333333;opacity=100.0;html=1;nl2Br=0;verticalAlign=top;align=center;spacingLeft=8.0;spacingRight=6;whiteSpace=wrap;gliffyId=223;" vertex="1" parent="2">
          <mxGeometry x="290" y="1150" width="80" height="50" as="geometry" />
        </mxCell>
        <mxCell id="BHV4HIjAjoOKH4ibJQ7y-314" style="shape=filledEdge;rounded=1;orthogonalLoop=1;jettySize=auto;html=1;labelBackgroundColor=default;strokeColor=#000000;strokeWidth=2;fontFamily=Helvetica;fontSize=11;fontColor=default;startArrow=none;startFill=0;endArrow=none;endFill=0;startSize=6;endSize=6;fillColor=none;" edge="1" source="BHV4HIjAjoOKH4ibJQ7y-316" target="BHV4HIjAjoOKH4ibJQ7y-313" parent="2">
          <mxGeometry relative="1" as="geometry" />
        </mxCell>
        <mxCell id="BHV4HIjAjoOKH4ibJQ7y-315" style="shape=filledEdge;rounded=1;orthogonalLoop=1;jettySize=auto;html=1;labelBackgroundColor=default;strokeColor=#000000;strokeWidth=2;fontFamily=Helvetica;fontSize=11;fontColor=default;startArrow=none;startFill=0;endArrow=none;endFill=0;startSize=6;endSize=6;fillColor=none;" edge="1" source="BHV4HIjAjoOKH4ibJQ7y-316" target="BHV4HIjAjoOKH4ibJQ7y-312" parent="2">
          <mxGeometry relative="1" as="geometry" />
        </mxCell>
        <mxCell id="BHV4HIjAjoOKH4ibJQ7y-316" value="&lt;div style=&#39;width: 83.0px;height:auto;word-break: break-word;&#39;&gt;&lt;div align=&quot;center&quot;&gt;&lt;span style=&quot;font-family: Arial; font-size: 12px; text-decoration: none; line-height: 0;&quot;&gt;&lt;span style=&quot;text-decoration: none; line-height: 14px;&quot; class=&quot;&quot;&gt;A_B_LNK&lt;/span&gt;&lt;/span&gt;&lt;/div&gt;&lt;/div&gt;" style="shape=hexagon;perimeter=hexagonPerimeter2;shadow=0;strokeWidth=2;fillColor=#E6E6E6;strokeColor=#333333;opacity=100.0;html=1;nl2Br=0;verticalAlign=top;align=center;spacingLeft=2.0;spacingRight=0;whiteSpace=wrap;gliffyId=217;" vertex="1" parent="2">
          <mxGeometry x="170" y="1151" width="110" height="48" as="geometry" />
        </mxCell>
        <mxCell id="BHV4HIjAjoOKH4ibJQ7y-317" value="" style="ellipse;whiteSpace=wrap;html=1;strokeColor=none;fillColor=#CC0000;" vertex="1" parent="2">
          <mxGeometry x="314.8599999999999" y="1180" width="10" height="11" as="geometry" />
        </mxCell>
        <mxCell id="BHV4HIjAjoOKH4ibJQ7y-318" value="" style="ellipse;whiteSpace=wrap;html=1;strokeColor=none;fillColor=#7f00ff;" vertex="1" parent="2">
          <mxGeometry x="333.53" y="1180" width="10" height="11" as="geometry" />
        </mxCell>
        <mxCell id="BHV4HIjAjoOKH4ibJQ7y-319" value="" style="ellipse;whiteSpace=wrap;html=1;strokeColor=none;fillColor=#000000;" vertex="1" parent="2">
          <mxGeometry x="109.99999999999989" y="1180" width="10" height="11" as="geometry" />
        </mxCell>
        <mxCell id="BHV4HIjAjoOKH4ibJQ7y-320" value="No relation overlap in parent hubs" style="shape=callout;whiteSpace=wrap;html=1;perimeter=calloutPerimeter;direction=west;position2=0.43;fillColor=#FFFF66;size=20;position=0.43;base=20;" vertex="1" parent="2">
          <mxGeometry x="190" y="1190" width="80" height="70" as="geometry" />
        </mxCell>
        <mxCell id="BHV4HIjAjoOKH4ibJQ7y-321" value="" style="rhombus;whiteSpace=wrap;html=1;fontFamily=Helvetica;fontSize=12;fontColor=default;fillColor=default;strokeWidth=2;" vertex="1" parent="2">
          <mxGeometry x="108" y="207" width="14" height="13" as="geometry" />
        </mxCell>
      </root>
    </mxGraphModel>
  </diagram>
</mxfile>
